<svg width="533" height="224" viewBox="0 0 533 224" fill="none" xmlns="http://www.w3.org/2000/svg">
<path d="M2.04545 50V3.45451H20.6818C24.1061 3.45451 26.9621 3.96209 29.25 4.97724C31.5379 5.99239 33.2576 7.40148 34.4091 9.20451C35.5606 10.9924 36.1364 13.053 36.1364 15.3863C36.1364 17.2045 35.7727 18.803 35.0455 20.1818C34.3182 21.5454 33.3182 22.6666 32.0455 23.5454C30.7879 24.4091 29.3485 25.0227 27.7273 25.3863V25.8409C29.5 25.9166 31.1591 26.4166 32.7045 27.3409C34.2652 28.2651 35.5303 29.5606 36.5 31.2272C37.4697 32.8788 37.9545 34.8485 37.9545 37.1363C37.9545 39.606 37.3409 41.8106 36.1136 43.75C34.9015 45.6742 33.1061 47.1969 30.7273 48.3182C28.3485 49.4394 25.4167 50 21.9318 50H2.04545ZM11.8864 41.9545H19.9091C22.6515 41.9545 24.6515 41.4318 25.9091 40.3863C27.1667 39.3257 27.7955 37.9166 27.7955 36.1591C27.7955 34.8712 27.4848 33.7348 26.8636 32.75C26.2424 31.7651 25.3561 30.9924 24.2045 30.4318C23.0682 29.8712 21.7121 29.5909 20.1364 29.5909H11.8864V41.9545ZM11.8864 22.9318H19.1818C20.5303 22.9318 21.7273 22.6969 22.7727 22.2272C23.8333 21.7424 24.6667 21.0606 25.2727 20.1818C25.8939 19.303 26.2045 18.25 26.2045 17.0227C26.2045 15.3409 25.6061 13.9848 24.4091 12.9545C23.2273 11.9242 21.5455 11.4091 19.3636 11.4091H11.8864V22.9318ZM66.5625 35.1363V15.0909H76.2443V50H66.9489V43.6591H66.5852C65.7973 45.7045 64.4867 47.3485 62.6534 48.5909C60.8352 49.8333 58.6155 50.4545 55.9943 50.4545C53.661 50.4545 51.608 49.9242 49.8352 48.8636C48.0625 47.803 46.6761 46.2954 45.6761 44.3409C44.6913 42.3863 44.1913 40.0454 44.1761 37.3182V15.0909H53.858V35.5909C53.8731 37.6515 54.4261 39.2803 55.517 40.4772C56.608 41.6742 58.0701 42.2727 59.9034 42.2727C61.0701 42.2727 62.161 42.0075 63.1761 41.4772C64.1913 40.9318 65.0095 40.1288 65.6307 39.0682C66.267 38.0075 66.5777 36.6969 66.5625 35.1363ZM83.9886 50V15.0909H93.6705V50H83.9886ZM88.8523 10.5909C87.4129 10.5909 86.178 10.1136 85.1477 9.15906C84.1326 8.18936 83.625 7.03027 83.625 5.68179C83.625 4.34845 84.1326 3.20451 85.1477 2.24997C86.178 1.28027 87.4129 0.795422 88.8523 0.795422C90.2917 0.795422 91.5189 1.28027 92.5341 2.24997C93.5644 3.20451 94.0795 4.34845 94.0795 5.68179C94.0795 7.03027 93.5644 8.18936 92.5341 9.15906C91.5189 10.1136 90.2917 10.5909 88.8523 10.5909ZM111.108 3.45451V50H101.426V3.45451H111.108ZM131.727 50.5682C129.076 50.5682 126.674 49.8863 124.523 48.5227C122.386 47.1439 120.689 45.1212 119.432 42.4545C118.189 39.7727 117.568 36.4848 117.568 32.5909C117.568 28.5909 118.212 25.2651 119.5 22.6136C120.788 19.9469 122.5 17.9545 124.636 16.6363C126.788 15.303 129.144 14.6363 131.705 14.6363C133.659 14.6363 135.288 14.9697 136.591 15.6363C137.909 16.2878 138.97 17.106 139.773 18.0909C140.591 19.0606 141.212 20.0151 141.636 20.9545H141.932V3.45451H151.591V50H142.045V44.4091H141.636C141.182 45.3788 140.538 46.3409 139.705 47.2954C138.886 48.2348 137.818 49.0151 136.5 49.6363C135.197 50.2575 133.606 50.5682 131.727 50.5682ZM134.795 42.8636C136.356 42.8636 137.674 42.4394 138.75 41.5909C139.841 40.7272 140.674 39.5227 141.25 37.9772C141.841 36.4318 142.136 34.6212 142.136 32.5454C142.136 30.4697 141.848 28.6666 141.273 27.1363C140.697 25.606 139.864 24.4242 138.773 23.5909C137.682 22.7575 136.356 22.3409 134.795 22.3409C133.205 22.3409 131.864 22.7727 130.773 23.6363C129.682 24.5 128.856 25.6969 128.295 27.2272C127.735 28.7575 127.455 30.5303 127.455 32.5454C127.455 34.5757 127.735 36.3712 128.295 37.9318C128.871 39.4772 129.697 40.6894 130.773 41.5682C131.864 42.4318 133.205 42.8636 134.795 42.8636ZM159.551 50V15.0909H169.233V50H159.551ZM164.415 10.5909C162.975 10.5909 161.741 10.1136 160.71 9.15906C159.695 8.18936 159.188 7.03027 159.188 5.68179C159.188 4.34845 159.695 3.20451 160.71 2.24997C161.741 1.28027 162.975 0.795422 164.415 0.795422C165.854 0.795422 167.081 1.28027 168.097 2.24997C169.127 3.20451 169.642 4.34845 169.642 5.68179C169.642 7.03027 169.127 8.18936 168.097 9.15906C167.081 10.1136 165.854 10.5909 164.415 10.5909ZM186.67 29.8182V50H176.989V15.0909H186.216V21.25H186.625C187.398 19.2197 188.693 17.6136 190.511 16.4318C192.33 15.2348 194.534 14.6363 197.125 14.6363C199.549 14.6363 201.663 15.1666 203.466 16.2272C205.269 17.2878 206.67 18.803 207.67 20.7727C208.67 22.7272 209.17 25.0606 209.17 27.7727V50H199.489V29.5C199.504 27.3636 198.958 25.6969 197.852 24.5C196.746 23.2878 195.223 22.6818 193.284 22.6818C191.981 22.6818 190.83 22.9621 189.83 23.5227C188.845 24.0833 188.072 24.9015 187.511 25.9772C186.966 27.0378 186.686 28.3182 186.67 29.8182ZM232.528 63.8182C229.392 63.8182 226.703 63.3863 224.46 62.5227C222.233 61.6742 220.46 60.5151 219.142 59.0454C217.824 57.5757 216.968 55.9242 216.574 54.0909L225.528 52.8863C225.801 53.5833 226.233 54.2348 226.824 54.8409C227.415 55.4469 228.195 55.9318 229.165 56.2954C230.15 56.6742 231.347 56.8636 232.756 56.8636C234.862 56.8636 236.597 56.3485 237.96 55.3182C239.339 54.303 240.028 52.5985 240.028 50.2045V43.8182H239.619C239.195 44.7878 238.559 45.7045 237.71 46.5682C236.862 47.4318 235.771 48.1363 234.438 48.6818C233.104 49.2272 231.513 49.5 229.665 49.5C227.044 49.5 224.657 48.8939 222.506 47.6818C220.369 46.4545 218.665 44.5833 217.392 42.0682C216.134 39.5378 215.506 36.3409 215.506 32.4772C215.506 28.5227 216.15 25.2197 217.438 22.5681C218.725 19.9166 220.438 17.9318 222.574 16.6136C224.725 15.2954 227.081 14.6363 229.642 14.6363C231.597 14.6363 233.233 14.9697 234.551 15.6363C235.869 16.2878 236.93 17.106 237.733 18.0909C238.551 19.0606 239.18 20.0151 239.619 20.9545H239.983V15.0909H249.597V50.3409C249.597 53.3106 248.869 55.7954 247.415 57.7954C245.96 59.7954 243.945 61.2954 241.369 62.2954C238.809 63.3106 235.862 63.8182 232.528 63.8182ZM232.733 42.2272C234.294 42.2272 235.612 41.8409 236.688 41.0682C237.778 40.2803 238.612 39.1591 239.188 37.7045C239.778 36.2348 240.074 34.4772 240.074 32.4318C240.074 30.3863 239.786 28.6136 239.21 27.1136C238.634 25.5985 237.801 24.4242 236.71 23.5909C235.619 22.7575 234.294 22.3409 232.733 22.3409C231.142 22.3409 229.801 22.7727 228.71 23.6363C227.619 24.4848 226.794 25.6666 226.233 27.1818C225.672 28.6969 225.392 30.4469 225.392 32.4318C225.392 34.4469 225.672 36.1894 226.233 37.6591C226.809 39.1136 227.634 40.2424 228.71 41.0454C229.801 41.8333 231.142 42.2272 232.733 42.2272ZM288.795 50H272.295V3.45451H288.932C293.614 3.45451 297.644 4.38633 301.023 6.24997C304.402 8.09845 307 10.7575 308.818 14.2272C310.652 17.6969 311.568 21.8485 311.568 26.6818C311.568 31.5303 310.652 35.6969 308.818 39.1818C307 42.6666 304.386 45.3409 300.977 47.2045C297.583 49.0682 293.523 50 288.795 50ZM282.136 41.5682H288.386C291.295 41.5682 293.742 41.053 295.727 40.0227C297.727 38.9772 299.227 37.3636 300.227 35.1818C301.242 32.9848 301.75 30.1515 301.75 26.6818C301.75 23.2424 301.242 20.4318 300.227 18.25C299.227 16.0682 297.735 14.4621 295.75 13.4318C293.765 12.4015 291.318 11.8863 288.409 11.8863H282.136V41.5682ZM318.676 50V15.0909H328.358V50H318.676ZM323.54 10.5909C322.1 10.5909 320.866 10.1136 319.835 9.15906C318.82 8.18936 318.312 7.03027 318.312 5.68179C318.312 4.34845 318.82 3.20451 319.835 2.24997C320.866 1.28027 322.1 0.795422 323.54 0.795422C324.979 0.795422 326.206 1.28027 327.222 2.24997C328.252 3.20451 328.767 4.34845 328.767 5.68179C328.767 7.03027 328.252 8.18936 327.222 9.15906C326.206 10.1136 324.979 10.5909 323.54 10.5909ZM351.841 63.8182C348.705 63.8182 346.015 63.3863 343.773 62.5227C341.545 61.6742 339.773 60.5151 338.455 59.0454C337.136 57.5757 336.28 55.9242 335.886 54.0909L344.841 52.8863C345.114 53.5833 345.545 54.2348 346.136 54.8409C346.727 55.4469 347.508 55.9318 348.477 56.2954C349.462 56.6742 350.659 56.8636 352.068 56.8636C354.174 56.8636 355.909 56.3485 357.273 55.3182C358.652 54.303 359.341 52.5985 359.341 50.2045V43.8182H358.932C358.508 44.7878 357.871 45.7045 357.023 46.5682C356.174 47.4318 355.083 48.1363 353.75 48.6818C352.417 49.2272 350.826 49.5 348.977 49.5C346.356 49.5 343.97 48.8939 341.818 47.6818C339.682 46.4545 337.977 44.5833 336.705 42.0682C335.447 39.5378 334.818 36.3409 334.818 32.4772C334.818 28.5227 335.462 25.2197 336.75 22.5681C338.038 19.9166 339.75 17.9318 341.886 16.6136C344.038 15.2954 346.394 14.6363 348.955 14.6363C350.909 14.6363 352.545 14.9697 353.864 15.6363C355.182 16.2878 356.242 17.106 357.045 18.0909C357.864 19.0606 358.492 20.0151 358.932 20.9545H359.295V15.0909H368.909V50.3409C368.909 53.3106 368.182 55.7954 366.727 57.7954C365.273 59.7954 363.258 61.2954 360.682 62.2954C358.121 63.3106 355.174 63.8182 351.841 63.8182ZM352.045 42.2272C353.606 42.2272 354.924 41.8409 356 41.0682C357.091 40.2803 357.924 39.1591 358.5 37.7045C359.091 36.2348 359.386 34.4772 359.386 32.4318C359.386 30.3863 359.098 28.6136 358.523 27.1136C357.947 25.5985 357.114 24.4242 356.023 23.5909C354.932 22.7575 353.606 22.3409 352.045 22.3409C350.455 22.3409 349.114 22.7727 348.023 23.6363C346.932 24.4848 346.106 25.6666 345.545 27.1818C344.985 28.6969 344.705 30.4469 344.705 32.4318C344.705 34.4469 344.985 36.1894 345.545 37.6591C346.121 39.1136 346.947 40.2424 348.023 41.0454C349.114 41.8333 350.455 42.2272 352.045 42.2272ZM376.614 50V15.0909H386.295V50H376.614ZM381.477 10.5909C380.038 10.5909 378.803 10.1136 377.773 9.15906C376.758 8.18936 376.25 7.03027 376.25 5.68179C376.25 4.34845 376.758 3.20451 377.773 2.24997C378.803 1.28027 380.038 0.795422 381.477 0.795422C382.917 0.795422 384.144 1.28027 385.159 2.24997C386.189 3.20451 386.705 4.34845 386.705 5.68179C386.705 7.03027 386.189 8.18936 385.159 9.15906C384.144 10.1136 382.917 10.5909 381.477 10.5909ZM412.619 15.0909V22.3636H391.597V15.0909H412.619ZM396.369 6.72724H406.051V39.2727C406.051 40.1666 406.188 40.8636 406.46 41.3636C406.733 41.8485 407.112 42.1894 407.597 42.3863C408.097 42.5833 408.672 42.6818 409.324 42.6818C409.778 42.6818 410.233 42.6439 410.688 42.5682C411.142 42.4772 411.491 42.4091 411.733 42.3636L413.256 49.5682C412.771 49.7197 412.089 49.8939 411.21 50.0909C410.331 50.303 409.263 50.4318 408.006 50.4772C405.672 50.5682 403.627 50.2575 401.869 49.5454C400.127 48.8333 398.771 47.7272 397.801 46.2272C396.831 44.7272 396.354 42.8333 396.369 40.5454V6.72724ZM428.881 50.6591C426.653 50.6591 424.669 50.2727 422.926 49.5C421.184 48.7121 419.805 47.553 418.79 46.0227C417.79 44.4772 417.29 42.553 417.29 40.25C417.29 38.3106 417.646 36.6818 418.358 35.3636C419.07 34.0454 420.04 32.9848 421.267 32.1818C422.494 31.3788 423.888 30.7727 425.449 30.3636C427.025 29.9545 428.676 29.6666 430.403 29.5C432.434 29.2878 434.07 29.0909 435.312 28.9091C436.555 28.7121 437.456 28.4242 438.017 28.0454C438.578 27.6666 438.858 27.106 438.858 26.3636V26.2272C438.858 24.7878 438.403 23.6742 437.494 22.8863C436.6 22.0985 435.328 21.7045 433.676 21.7045C431.934 21.7045 430.547 22.0909 429.517 22.8636C428.487 23.6212 427.805 24.5757 427.472 25.7272L418.517 25C418.972 22.8788 419.866 21.0454 421.199 19.5C422.532 17.9394 424.252 16.7424 426.358 15.9091C428.479 15.0606 430.934 14.6363 433.722 14.6363C435.661 14.6363 437.517 14.8636 439.29 15.3181C441.078 15.7727 442.661 16.4772 444.04 17.4318C445.434 18.3863 446.532 19.6136 447.335 21.1136C448.138 22.5985 448.54 24.3788 448.54 26.4545V50H439.358V45.1591H439.085C438.525 46.25 437.775 47.2121 436.835 48.0454C435.896 48.8636 434.767 49.5075 433.449 49.9772C432.131 50.4318 430.608 50.6591 428.881 50.6591ZM431.653 43.9772C433.078 43.9772 434.335 43.6969 435.426 43.1363C436.517 42.5606 437.373 41.7878 437.994 40.8182C438.616 39.8485 438.926 38.75 438.926 37.5227V33.8182C438.623 34.0151 438.206 34.1969 437.676 34.3636C437.161 34.5151 436.578 34.6591 435.926 34.7954C435.275 34.9166 434.623 35.0303 433.972 35.1363C433.32 35.2272 432.729 35.3106 432.199 35.3863C431.063 35.553 430.07 35.8182 429.222 36.1818C428.373 36.5454 427.714 37.0378 427.244 37.6591C426.775 38.2651 426.54 39.0227 426.54 39.9318C426.54 41.25 427.017 42.2575 427.972 42.9545C428.941 43.6363 430.169 43.9772 431.653 43.9772ZM465.733 3.45451V50H456.051V3.45451H465.733ZM2.04545 130V83.4545H20.4091C23.9394 83.4545 26.947 84.1288 29.4318 85.4772C31.9167 86.8106 33.8106 88.6666 35.1136 91.0454C36.4318 93.4091 37.0909 96.1363 37.0909 99.2272C37.0909 102.318 36.4242 105.045 35.0909 107.409C33.7576 109.773 31.8258 111.614 29.2955 112.932C26.7803 114.25 23.7348 114.909 20.1591 114.909H8.45455V107.023H18.5682C20.4621 107.023 22.0227 106.697 23.25 106.045C24.4924 105.379 25.4167 104.462 26.0227 103.295C26.6439 102.114 26.9545 100.758 26.9545 99.2272C26.9545 97.6818 26.6439 96.3333 26.0227 95.1818C25.4167 94.0151 24.4924 93.1136 23.25 92.4772C22.0076 91.8257 20.4318 91.5 18.5227 91.5H11.8864V130H2.04545ZM43.3011 130V95.0909H52.6875V101.182H53.0511C53.6875 99.0151 54.7557 97.3788 56.2557 96.2727C57.7557 95.1515 59.483 94.5909 61.4375 94.5909C61.9223 94.5909 62.4451 94.6212 63.0057 94.6818C63.5663 94.7424 64.0587 94.8257 64.483 94.9318V103.523C64.0284 103.386 63.3996 103.265 62.5966 103.159C61.7936 103.053 61.0587 103 60.392 103C58.9678 103 57.6951 103.311 56.5739 103.932C55.4678 104.538 54.589 105.386 53.9375 106.477C53.3011 107.568 52.983 108.826 52.983 110.25V130H43.3011ZM83.6364 130.682C80.1061 130.682 77.053 129.932 74.4773 128.432C71.9167 126.917 69.9394 124.811 68.5455 122.114C67.1515 119.401 66.4545 116.258 66.4545 112.682C66.4545 109.076 67.1515 105.924 68.5455 103.227C69.9394 100.515 71.9167 98.4091 74.4773 96.9091C77.053 95.3939 80.1061 94.6363 83.6364 94.6363C87.1667 94.6363 90.2121 95.3939 92.7727 96.9091C95.3485 98.4091 97.3333 100.515 98.7273 103.227C100.121 105.924 100.818 109.076 100.818 112.682C100.818 116.258 100.121 119.401 98.7273 122.114C97.3333 124.811 95.3485 126.917 92.7727 128.432C90.2121 129.932 87.1667 130.682 83.6364 130.682ZM83.6818 123.182C85.2879 123.182 86.6288 122.727 87.7045 121.818C88.7803 120.894 89.5909 119.636 90.1364 118.045C90.697 116.455 90.9773 114.644 90.9773 112.614C90.9773 110.583 90.697 108.773 90.1364 107.182C89.5909 105.591 88.7803 104.333 87.7045 103.409C86.6288 102.485 85.2879 102.023 83.6818 102.023C82.0606 102.023 80.697 102.485 79.5909 103.409C78.5 104.333 77.6742 105.591 77.1136 107.182C76.5682 108.773 76.2955 110.583 76.2955 112.614C76.2955 114.644 76.5682 116.455 77.1136 118.045C77.6742 119.636 78.5 120.894 79.5909 121.818C80.697 122.727 82.0606 123.182 83.6818 123.182ZM119.977 130.568C117.326 130.568 114.924 129.886 112.773 128.523C110.636 127.144 108.939 125.121 107.682 122.455C106.439 119.773 105.818 116.485 105.818 112.591C105.818 108.591 106.462 105.265 107.75 102.614C109.038 99.9469 110.75 97.9545 112.886 96.6363C115.038 95.303 117.394 94.6363 119.955 94.6363C121.909 94.6363 123.538 94.9697 124.841 95.6363C126.159 96.2878 127.22 97.106 128.023 98.0909C128.841 99.0606 129.462 100.015 129.886 100.955H130.182V83.4545H139.841V130H130.295V124.409H129.886C129.432 125.379 128.788 126.341 127.955 127.295C127.136 128.235 126.068 129.015 124.75 129.636C123.447 130.258 121.856 130.568 119.977 130.568ZM123.045 122.864C124.606 122.864 125.924 122.439 127 121.591C128.091 120.727 128.924 119.523 129.5 117.977C130.091 116.432 130.386 114.621 130.386 112.545C130.386 110.47 130.098 108.667 129.523 107.136C128.947 105.606 128.114 104.424 127.023 103.591C125.932 102.758 124.606 102.341 123.045 102.341C121.455 102.341 120.114 102.773 119.023 103.636C117.932 104.5 117.106 105.697 116.545 107.227C115.985 108.758 115.705 110.53 115.705 112.545C115.705 114.576 115.985 116.371 116.545 117.932C117.121 119.477 117.947 120.689 119.023 121.568C120.114 122.432 121.455 122.864 123.045 122.864ZM170.188 115.136V95.0909H179.869V130H170.574V123.659H170.21C169.422 125.705 168.112 127.348 166.278 128.591C164.46 129.833 162.241 130.455 159.619 130.455C157.286 130.455 155.233 129.924 153.46 128.864C151.688 127.803 150.301 126.295 149.301 124.341C148.316 122.386 147.816 120.045 147.801 117.318V95.0909H157.483V115.591C157.498 117.651 158.051 119.28 159.142 120.477C160.233 121.674 161.695 122.273 163.528 122.273C164.695 122.273 165.786 122.008 166.801 121.477C167.816 120.932 168.634 120.129 169.256 119.068C169.892 118.008 170.203 116.697 170.188 115.136ZM203.386 130.682C199.811 130.682 196.735 129.924 194.159 128.409C191.598 126.879 189.629 124.758 188.25 122.045C186.886 119.333 186.205 116.212 186.205 112.682C186.205 109.106 186.894 105.97 188.273 103.273C189.667 100.561 191.644 98.4469 194.205 96.9318C196.765 95.4015 199.811 94.6363 203.341 94.6363C206.386 94.6363 209.053 95.1894 211.341 96.2954C213.629 97.4015 215.439 98.9545 216.773 100.955C218.106 102.955 218.841 105.303 218.977 108H209.841C209.583 106.258 208.902 104.856 207.795 103.795C206.705 102.72 205.273 102.182 203.5 102.182C202 102.182 200.689 102.591 199.568 103.409C198.462 104.212 197.598 105.386 196.977 106.932C196.356 108.477 196.045 110.348 196.045 112.545C196.045 114.773 196.348 116.667 196.955 118.227C197.576 119.788 198.447 120.977 199.568 121.795C200.689 122.614 202 123.023 203.5 123.023C204.606 123.023 205.598 122.795 206.477 122.341C207.371 121.886 208.106 121.227 208.682 120.364C209.273 119.485 209.659 118.432 209.841 117.205H218.977C218.826 119.871 218.098 122.22 216.795 124.25C215.508 126.265 213.727 127.841 211.455 128.977C209.182 130.114 206.492 130.682 203.386 130.682ZM243.744 95.0909V102.364H222.722V95.0909H243.744ZM227.494 86.7272H237.176V119.273C237.176 120.167 237.313 120.864 237.585 121.364C237.858 121.848 238.237 122.189 238.722 122.386C239.222 122.583 239.797 122.682 240.449 122.682C240.903 122.682 241.358 122.644 241.812 122.568C242.267 122.477 242.616 122.409 242.858 122.364L244.381 129.568C243.896 129.72 243.214 129.894 242.335 130.091C241.456 130.303 240.388 130.432 239.131 130.477C236.797 130.568 234.752 130.258 232.994 129.545C231.252 128.833 229.896 127.727 228.926 126.227C227.956 124.727 227.479 122.833 227.494 120.545V86.7272ZM278.659 105.045L269.795 105.591C269.644 104.833 269.318 104.151 268.818 103.545C268.318 102.924 267.659 102.432 266.841 102.068C266.038 101.689 265.076 101.5 263.955 101.5C262.455 101.5 261.189 101.818 260.159 102.455C259.129 103.076 258.614 103.909 258.614 104.955C258.614 105.788 258.947 106.492 259.614 107.068C260.28 107.644 261.424 108.106 263.045 108.455L269.364 109.727C272.758 110.424 275.288 111.545 276.955 113.091C278.621 114.636 279.455 116.667 279.455 119.182C279.455 121.47 278.78 123.477 277.432 125.205C276.098 126.932 274.265 128.28 271.932 129.25C269.614 130.205 266.939 130.682 263.909 130.682C259.288 130.682 255.606 129.72 252.864 127.795C250.136 125.856 248.538 123.22 248.068 119.886L257.591 119.386C257.879 120.795 258.576 121.871 259.682 122.614C260.788 123.341 262.205 123.705 263.932 123.705C265.629 123.705 266.992 123.379 268.023 122.727C269.068 122.061 269.598 121.205 269.614 120.159C269.598 119.28 269.227 118.561 268.5 118C267.773 117.424 266.652 116.985 265.136 116.682L259.091 115.477C255.682 114.795 253.144 113.614 251.477 111.932C249.826 110.25 249 108.106 249 105.5C249 103.258 249.606 101.326 250.818 99.7045C252.045 98.0833 253.765 96.8333 255.977 95.9545C258.205 95.0757 260.811 94.6363 263.795 94.6363C268.205 94.6363 271.674 95.5682 274.205 97.4318C276.75 99.2954 278.235 101.833 278.659 105.045ZM296.074 123.636L295.824 126.136C295.627 128.136 295.248 130.129 294.688 132.114C294.142 134.114 293.566 135.924 292.96 137.545C292.369 139.167 291.892 140.439 291.528 141.364H285.256C285.483 140.47 285.794 139.22 286.188 137.614C286.581 136.023 286.953 134.235 287.301 132.25C287.65 130.265 287.869 128.242 287.96 126.182L288.074 123.636H296.074ZM317.733 130V83.4545H336.369C339.794 83.4545 342.65 83.9621 344.938 84.9772C347.225 85.9924 348.945 87.4015 350.097 89.2045C351.248 90.9924 351.824 93.053 351.824 95.3863C351.824 97.2045 351.46 98.803 350.733 100.182C350.006 101.545 349.006 102.667 347.733 103.545C346.475 104.409 345.036 105.023 343.415 105.386V105.841C345.188 105.917 346.847 106.417 348.392 107.341C349.953 108.265 351.218 109.561 352.188 111.227C353.157 112.879 353.642 114.848 353.642 117.136C353.642 119.606 353.028 121.811 351.801 123.75C350.589 125.674 348.794 127.197 346.415 128.318C344.036 129.439 341.104 130 337.619 130H317.733ZM327.574 121.955H335.597C338.339 121.955 340.339 121.432 341.597 120.386C342.854 119.326 343.483 117.917 343.483 116.159C343.483 114.871 343.172 113.735 342.551 112.75C341.93 111.765 341.044 110.992 339.892 110.432C338.756 109.871 337.4 109.591 335.824 109.591H327.574V121.955ZM327.574 102.932H334.869C336.218 102.932 337.415 102.697 338.46 102.227C339.521 101.742 340.354 101.061 340.96 100.182C341.581 99.303 341.892 98.25 341.892 97.0227C341.892 95.3409 341.294 93.9848 340.097 92.9545C338.915 91.9242 337.233 91.4091 335.051 91.4091H327.574V102.932ZM359.864 130V95.0909H369.25V101.182H369.614C370.25 99.0151 371.318 97.3788 372.818 96.2727C374.318 95.1515 376.045 94.5909 378 94.5909C378.485 94.5909 379.008 94.6212 379.568 94.6818C380.129 94.7424 380.621 94.8257 381.045 94.9318V103.523C380.591 103.386 379.962 103.265 379.159 103.159C378.356 103.053 377.621 103 376.955 103C375.53 103 374.258 103.311 373.136 103.932C372.03 104.538 371.152 105.386 370.5 106.477C369.864 107.568 369.545 108.826 369.545 110.25V130H359.864ZM395.006 130.659C392.778 130.659 390.794 130.273 389.051 129.5C387.309 128.712 385.93 127.553 384.915 126.023C383.915 124.477 383.415 122.553 383.415 120.25C383.415 118.311 383.771 116.682 384.483 115.364C385.195 114.045 386.165 112.985 387.392 112.182C388.619 111.379 390.013 110.773 391.574 110.364C393.15 109.955 394.801 109.667 396.528 109.5C398.559 109.288 400.195 109.091 401.438 108.909C402.68 108.712 403.581 108.424 404.142 108.045C404.703 107.667 404.983 107.106 404.983 106.364V106.227C404.983 104.788 404.528 103.674 403.619 102.886C402.725 102.098 401.453 101.705 399.801 101.705C398.059 101.705 396.672 102.091 395.642 102.864C394.612 103.621 393.93 104.576 393.597 105.727L384.642 105C385.097 102.879 385.991 101.045 387.324 99.5C388.657 97.9394 390.377 96.7424 392.483 95.9091C394.604 95.0606 397.059 94.6363 399.847 94.6363C401.786 94.6363 403.642 94.8636 405.415 95.3181C407.203 95.7727 408.786 96.4772 410.165 97.4318C411.559 98.3863 412.657 99.6136 413.46 101.114C414.263 102.598 414.665 104.379 414.665 106.455V130H405.483V125.159H405.21C404.65 126.25 403.9 127.212 402.96 128.045C402.021 128.864 400.892 129.508 399.574 129.977C398.256 130.432 396.733 130.659 395.006 130.659ZM397.778 123.977C399.203 123.977 400.46 123.697 401.551 123.136C402.642 122.561 403.498 121.788 404.119 120.818C404.741 119.848 405.051 118.75 405.051 117.523V113.818C404.748 114.015 404.331 114.197 403.801 114.364C403.286 114.515 402.703 114.659 402.051 114.795C401.4 114.917 400.748 115.03 400.097 115.136C399.445 115.227 398.854 115.311 398.324 115.386C397.188 115.553 396.195 115.818 395.347 116.182C394.498 116.545 393.839 117.038 393.369 117.659C392.9 118.265 392.665 119.023 392.665 119.932C392.665 121.25 393.142 122.258 394.097 122.955C395.066 123.636 396.294 123.977 397.778 123.977ZM431.858 109.818V130H422.176V95.0909H431.403V101.25H431.812C432.585 99.2197 433.881 97.6136 435.699 96.4318C437.517 95.2348 439.722 94.6363 442.312 94.6363C444.737 94.6363 446.85 95.1666 448.653 96.2272C450.456 97.2878 451.858 98.803 452.858 100.773C453.858 102.727 454.358 105.061 454.358 107.773V130H444.676V109.5C444.691 107.364 444.146 105.697 443.04 104.5C441.934 103.288 440.411 102.682 438.472 102.682C437.169 102.682 436.017 102.962 435.017 103.523C434.032 104.083 433.259 104.901 432.699 105.977C432.153 107.038 431.873 108.318 431.858 109.818ZM474.852 130.568C472.201 130.568 469.799 129.886 467.648 128.523C465.511 127.144 463.814 125.121 462.557 122.455C461.314 119.773 460.693 116.485 460.693 112.591C460.693 108.591 461.337 105.265 462.625 102.614C463.913 99.9469 465.625 97.9545 467.761 96.6363C469.913 95.303 472.269 94.6363 474.83 94.6363C476.784 94.6363 478.413 94.9697 479.716 95.6363C481.034 96.2878 482.095 97.106 482.898 98.0909C483.716 99.0606 484.337 100.015 484.761 100.955H485.057V83.4545H494.716V130H485.17V124.409H484.761C484.307 125.379 483.663 126.341 482.83 127.295C482.011 128.235 480.943 129.015 479.625 129.636C478.322 130.258 476.731 130.568 474.852 130.568ZM477.92 122.864C479.481 122.864 480.799 122.439 481.875 121.591C482.966 120.727 483.799 119.523 484.375 117.977C484.966 116.432 485.261 114.621 485.261 112.545C485.261 110.47 484.973 108.667 484.398 107.136C483.822 105.606 482.989 104.424 481.898 103.591C480.807 102.758 479.481 102.341 477.92 102.341C476.33 102.341 474.989 102.773 473.898 103.636C472.807 104.5 471.981 105.697 471.42 107.227C470.86 108.758 470.58 110.53 470.58 112.545C470.58 114.576 470.86 116.371 471.42 117.932C471.996 119.477 472.822 120.689 473.898 121.568C474.989 122.432 476.33 122.864 477.92 122.864ZM531.722 105.045L522.858 105.591C522.706 104.833 522.381 104.151 521.881 103.545C521.381 102.924 520.722 102.432 519.903 102.068C519.1 101.689 518.138 101.5 517.017 101.5C515.517 101.5 514.252 101.818 513.222 102.455C512.191 103.076 511.676 103.909 511.676 104.955C511.676 105.788 512.009 106.492 512.676 107.068C513.343 107.644 514.487 108.106 516.108 108.455L522.426 109.727C525.82 110.424 528.35 111.545 530.017 113.091C531.684 114.636 532.517 116.667 532.517 119.182C532.517 121.47 531.843 123.477 530.494 125.205C529.161 126.932 527.328 128.28 524.994 129.25C522.676 130.205 520.002 130.682 516.972 130.682C512.35 130.682 508.669 129.72 505.926 127.795C503.199 125.856 501.6 123.22 501.131 119.886L510.653 119.386C510.941 120.795 511.638 121.871 512.744 122.614C513.85 123.341 515.267 123.705 516.994 123.705C518.691 123.705 520.055 123.379 521.085 122.727C522.131 122.061 522.661 121.205 522.676 120.159C522.661 119.28 522.29 118.561 521.562 118C520.835 117.424 519.714 116.985 518.199 116.682L512.153 115.477C508.744 114.795 506.206 113.614 504.54 111.932C502.888 110.25 502.062 108.106 502.062 105.5C502.062 103.258 502.669 101.326 503.881 99.7045C505.108 98.0833 506.828 96.8333 509.04 95.9545C511.267 95.0757 513.873 94.6363 516.858 94.6363C521.267 94.6363 524.737 95.5682 527.267 97.4318C529.813 99.2954 531.297 101.833 531.722 105.045ZM16.1364 210.682C12.9242 210.682 10.1515 210.106 7.81818 208.955C5.48485 207.803 3.68939 206.242 2.43182 204.273C1.18939 202.288 0.568182 200.076 0.568182 197.636C0.568182 195.818 0.931818 194.205 1.65909 192.795C2.38636 191.386 3.40152 190.091 4.70455 188.909C6.00758 187.712 7.52273 186.523 9.25 185.341L18.2727 179.409C19.4394 178.667 20.2955 177.886 20.8409 177.068C21.3864 176.235 21.6591 175.333 21.6591 174.364C21.6591 173.439 21.2879 172.583 20.5455 171.795C19.803 171.008 18.75 170.621 17.3864 170.636C16.4773 170.636 15.6894 170.841 15.0227 171.25C14.3561 171.644 13.8333 172.167 13.4545 172.818C13.0909 173.455 12.9091 174.167 12.9091 174.955C12.9091 175.924 13.1818 176.909 13.7273 177.909C14.2727 178.909 15 179.97 15.9091 181.091C16.8182 182.197 17.8106 183.394 18.8864 184.682L40.9545 210H30.8636L12.4545 189.5C11.2424 188.121 10.0303 186.682 8.81818 185.182C7.62121 183.667 6.62121 182.061 5.81818 180.364C5.01515 178.651 4.61364 176.795 4.61364 174.795C4.61364 172.538 5.13636 170.508 6.18182 168.705C7.24242 166.901 8.72727 165.477 10.6364 164.432C12.5455 163.371 14.7727 162.841 17.3182 162.841C19.803 162.841 21.947 163.348 23.75 164.364C25.5682 165.364 26.9621 166.697 27.9318 168.364C28.9167 170.015 29.4091 171.833 29.4091 173.818C29.4091 176.015 28.8636 178.008 27.7727 179.795C26.697 181.568 25.1818 183.159 23.2273 184.568L13.7273 191.409C12.4394 192.348 11.4848 193.311 10.8636 194.295C10.2576 195.265 9.95455 196.197 9.95455 197.091C9.95455 198.197 10.2273 199.189 10.7727 200.068C11.3182 200.947 12.0909 201.644 13.0909 202.159C14.0909 202.659 15.2652 202.909 16.6136 202.909C18.25 202.909 19.8636 202.538 21.4545 201.795C23.0606 201.038 24.5152 199.97 25.8182 198.591C27.1364 197.197 28.1894 195.545 28.9773 193.636C29.7652 191.727 30.1591 189.614 30.1591 187.295H38.1818C38.1818 190.144 37.8712 192.712 37.25 195C36.6288 197.273 35.7652 199.258 34.6591 200.955C33.553 202.636 32.2879 204.015 30.8636 205.091C30.4091 205.379 29.9697 205.651 29.5455 205.909C29.1212 206.167 28.6818 206.439 28.2273 206.727C26.5 208.121 24.5682 209.129 22.4318 209.75C20.3106 210.371 18.2121 210.682 16.1364 210.682ZM59.983 210V163.455H91.3466V171.568H69.8239V182.659H89.733V190.773H69.8239V201.886H91.4375V210H59.983ZM107.08 175.091L113.489 187.295L120.057 175.091H129.989L119.875 192.545L130.261 210H120.375L113.489 197.932L106.716 210H96.7159L107.08 192.545L97.0795 175.091H107.08ZM135.739 223.091V175.091H145.284V180.955H145.716C146.14 180.015 146.754 179.061 147.557 178.091C148.375 177.106 149.436 176.288 150.739 175.636C152.057 174.97 153.693 174.636 155.648 174.636C158.193 174.636 160.542 175.303 162.693 176.636C164.845 177.955 166.564 179.947 167.852 182.614C169.14 185.265 169.784 188.591 169.784 192.591C169.784 196.485 169.155 199.773 167.898 202.455C166.655 205.121 164.958 207.144 162.807 208.523C160.67 209.886 158.277 210.568 155.625 210.568C153.746 210.568 152.148 210.258 150.83 209.636C149.527 209.015 148.458 208.235 147.625 207.295C146.792 206.341 146.155 205.379 145.716 204.409H145.42V223.091H135.739ZM145.216 192.545C145.216 194.621 145.504 196.432 146.08 197.977C146.655 199.523 147.489 200.727 148.58 201.591C149.67 202.439 150.996 202.864 152.557 202.864C154.133 202.864 155.466 202.432 156.557 201.568C157.648 200.689 158.473 199.477 159.034 197.932C159.61 196.371 159.898 194.576 159.898 192.545C159.898 190.53 159.617 188.758 159.057 187.227C158.496 185.697 157.67 184.5 156.58 183.636C155.489 182.773 154.148 182.341 152.557 182.341C150.981 182.341 149.648 182.758 148.557 183.591C147.481 184.424 146.655 185.606 146.08 187.136C145.504 188.667 145.216 190.47 145.216 192.545ZM192.148 210.682C188.557 210.682 185.466 209.955 182.875 208.5C180.299 207.03 178.314 204.955 176.92 202.273C175.527 199.576 174.83 196.386 174.83 192.705C174.83 189.114 175.527 185.962 176.92 183.25C178.314 180.538 180.277 178.424 182.807 176.909C185.352 175.394 188.337 174.636 191.761 174.636C194.064 174.636 196.208 175.008 198.193 175.75C200.193 176.477 201.936 177.576 203.42 179.045C204.92 180.515 206.087 182.364 206.92 184.591C207.754 186.803 208.17 189.394 208.17 192.364V195.023H178.693V189.023H199.057C199.057 187.629 198.754 186.394 198.148 185.318C197.542 184.242 196.701 183.401 195.625 182.795C194.564 182.174 193.33 181.864 191.92 181.864C190.451 181.864 189.148 182.205 188.011 182.886C186.89 183.553 186.011 184.455 185.375 185.591C184.739 186.712 184.413 187.962 184.398 189.341V195.045C184.398 196.773 184.716 198.265 185.352 199.523C186.004 200.78 186.92 201.75 188.102 202.432C189.284 203.114 190.686 203.455 192.307 203.455C193.383 203.455 194.367 203.303 195.261 203C196.155 202.697 196.92 202.242 197.557 201.636C198.193 201.03 198.678 200.288 199.011 199.409L207.966 200C207.511 202.151 206.58 204.03 205.17 205.636C203.777 207.227 201.973 208.47 199.761 209.364C197.564 210.242 195.027 210.682 192.148 210.682ZM214.489 210V175.091H223.875V181.182H224.239C224.875 179.015 225.943 177.379 227.443 176.273C228.943 175.151 230.67 174.591 232.625 174.591C233.11 174.591 233.633 174.621 234.193 174.682C234.754 174.742 235.246 174.826 235.67 174.932V183.523C235.216 183.386 234.587 183.265 233.784 183.159C232.981 183.053 232.246 183 231.58 183C230.155 183 228.883 183.311 227.761 183.932C226.655 184.538 225.777 185.386 225.125 186.477C224.489 187.568 224.17 188.826 224.17 190.25V210H214.489ZM240.676 210V175.091H250.358V210H240.676ZM245.54 170.591C244.1 170.591 242.866 170.114 241.835 169.159C240.82 168.189 240.312 167.03 240.312 165.682C240.312 164.348 240.82 163.205 241.835 162.25C242.866 161.28 244.1 160.795 245.54 160.795C246.979 160.795 248.206 161.28 249.222 162.25C250.252 163.205 250.767 164.348 250.767 165.682C250.767 167.03 250.252 168.189 249.222 169.159C248.206 170.114 246.979 170.591 245.54 170.591ZM274.023 210.682C270.432 210.682 267.341 209.955 264.75 208.5C262.174 207.03 260.189 204.955 258.795 202.273C257.402 199.576 256.705 196.386 256.705 192.705C256.705 189.114 257.402 185.962 258.795 183.25C260.189 180.538 262.152 178.424 264.682 176.909C267.227 175.394 270.212 174.636 273.636 174.636C275.939 174.636 278.083 175.008 280.068 175.75C282.068 176.477 283.811 177.576 285.295 179.045C286.795 180.515 287.962 182.364 288.795 184.591C289.629 186.803 290.045 189.394 290.045 192.364V195.023H260.568V189.023H280.932C280.932 187.629 280.629 186.394 280.023 185.318C279.417 184.242 278.576 183.401 277.5 182.795C276.439 182.174 275.205 181.864 273.795 181.864C272.326 181.864 271.023 182.205 269.886 182.886C268.765 183.553 267.886 184.455 267.25 185.591C266.614 186.712 266.288 187.962 266.273 189.341V195.045C266.273 196.773 266.591 198.265 267.227 199.523C267.879 200.78 268.795 201.75 269.977 202.432C271.159 203.114 272.561 203.455 274.182 203.455C275.258 203.455 276.242 203.303 277.136 203C278.03 202.697 278.795 202.242 279.432 201.636C280.068 201.03 280.553 200.288 280.886 199.409L289.841 200C289.386 202.151 288.455 204.03 287.045 205.636C285.652 207.227 283.848 208.47 281.636 209.364C279.439 210.242 276.902 210.682 274.023 210.682ZM306.045 189.818V210H296.364V175.091H305.591V181.25H306C306.773 179.22 308.068 177.614 309.886 176.432C311.705 175.235 313.909 174.636 316.5 174.636C318.924 174.636 321.038 175.167 322.841 176.227C324.644 177.288 326.045 178.803 327.045 180.773C328.045 182.727 328.545 185.061 328.545 187.773V210H318.864V189.5C318.879 187.364 318.333 185.697 317.227 184.5C316.121 183.288 314.598 182.682 312.659 182.682C311.356 182.682 310.205 182.962 309.205 183.523C308.22 184.083 307.447 184.901 306.886 185.977C306.341 187.038 306.061 188.318 306.045 189.818ZM351.949 210.682C348.373 210.682 345.297 209.924 342.722 208.409C340.161 206.879 338.191 204.758 336.812 202.045C335.449 199.333 334.767 196.212 334.767 192.682C334.767 189.106 335.456 185.97 336.835 183.273C338.229 180.561 340.206 178.447 342.767 176.932C345.328 175.401 348.373 174.636 351.903 174.636C354.949 174.636 357.616 175.189 359.903 176.295C362.191 177.401 364.002 178.955 365.335 180.955C366.669 182.955 367.403 185.303 367.54 188H358.403C358.146 186.258 357.464 184.856 356.358 183.795C355.267 182.72 353.835 182.182 352.062 182.182C350.562 182.182 349.252 182.591 348.131 183.409C347.025 184.212 346.161 185.386 345.54 186.932C344.919 188.477 344.608 190.348 344.608 192.545C344.608 194.773 344.911 196.667 345.517 198.227C346.138 199.788 347.009 200.977 348.131 201.795C349.252 202.614 350.562 203.023 352.062 203.023C353.169 203.023 354.161 202.795 355.04 202.341C355.934 201.886 356.669 201.227 357.244 200.364C357.835 199.485 358.222 198.432 358.403 197.205H367.54C367.388 199.871 366.661 202.22 365.358 204.25C364.07 206.265 362.29 207.841 360.017 208.977C357.744 210.114 355.055 210.682 351.949 210.682ZM389.648 210.682C386.057 210.682 382.966 209.955 380.375 208.5C377.799 207.03 375.814 204.955 374.42 202.273C373.027 199.576 372.33 196.386 372.33 192.705C372.33 189.114 373.027 185.962 374.42 183.25C375.814 180.538 377.777 178.424 380.307 176.909C382.852 175.394 385.837 174.636 389.261 174.636C391.564 174.636 393.708 175.008 395.693 175.75C397.693 176.477 399.436 177.576 400.92 179.045C402.42 180.515 403.587 182.364 404.42 184.591C405.254 186.803 405.67 189.394 405.67 192.364V195.023H376.193V189.023H396.557C396.557 187.629 396.254 186.394 395.648 185.318C395.042 184.242 394.201 183.401 393.125 182.795C392.064 182.174 390.83 181.864 389.42 181.864C387.951 181.864 386.648 182.205 385.511 182.886C384.39 183.553 383.511 184.455 382.875 185.591C382.239 186.712 381.913 187.962 381.898 189.341V195.045C381.898 196.773 382.216 198.265 382.852 199.523C383.504 200.78 384.42 201.75 385.602 202.432C386.784 203.114 388.186 203.455 389.807 203.455C390.883 203.455 391.867 203.303 392.761 203C393.655 202.697 394.42 202.242 395.057 201.636C395.693 201.03 396.178 200.288 396.511 199.409L405.466 200C405.011 202.151 404.08 204.03 402.67 205.636C401.277 207.227 399.473 208.47 397.261 209.364C395.064 210.242 392.527 210.682 389.648 210.682ZM417.648 210.591C416.148 210.591 414.86 210.061 413.784 209C412.723 207.924 412.193 206.636 412.193 205.136C412.193 203.651 412.723 202.379 413.784 201.318C414.86 200.258 416.148 199.727 417.648 199.727C419.102 199.727 420.375 200.258 421.466 201.318C422.557 202.379 423.102 203.651 423.102 205.136C423.102 206.136 422.845 207.053 422.33 207.886C421.83 208.705 421.17 209.364 420.352 209.864C419.534 210.348 418.633 210.591 417.648 210.591Z" fill="white"/>
</svg>
