<svg width="120" height="74" viewBox="0 0 120 74" fill="none" xmlns="http://www.w3.org/2000/svg">
<path d="M18.366 36L33.2126 6.61364V6.375H15.9797V1.09091H39.7581V6.49432L24.9285 36H18.366ZM57.4129 36.6648C54.6061 36.6648 52.197 35.9545 50.1856 34.5341C48.1856 33.1023 46.6459 31.0398 45.5663 28.3466C44.4981 25.642 43.964 22.3864 43.964 18.5795C43.9754 14.7727 44.5152 11.5341 45.5834 8.86364C46.6629 6.18182 48.2027 4.13636 50.2027 2.72727C52.214 1.31818 54.6175 0.613635 57.4129 0.613635C60.2084 0.613635 62.6118 1.31818 64.6231 2.72727C66.6345 4.13636 68.1743 6.18182 69.2425 8.86364C70.322 11.5455 70.8618 14.7841 70.8618 18.5795C70.8618 22.3977 70.322 25.6591 69.2425 28.3636C68.1743 31.0568 66.6345 33.1136 64.6231 34.5341C62.6231 35.9545 60.2197 36.6648 57.4129 36.6648ZM57.4129 31.3295C59.5947 31.3295 61.3163 30.2557 62.5777 28.108C63.8504 25.9489 64.4868 22.7727 64.4868 18.5795C64.4868 15.8068 64.197 13.4773 63.6175 11.5909C63.0379 9.70454 62.2197 8.28409 61.1629 7.32955C60.1061 6.36364 58.8561 5.88068 57.4129 5.88068C55.2425 5.88068 53.5265 6.96023 52.2652 9.11932C51.0038 11.267 50.3675 14.4205 50.3561 18.5795C50.3447 21.3636 50.6231 23.7045 51.1913 25.6023C51.7709 27.5 52.589 28.9318 53.6459 29.8977C54.7027 30.8523 55.9584 31.3295 57.4129 31.3295ZM86.8888 30.4091V6.81818H92.241V30.4091H86.8888ZM77.7694 21.2898V15.9375H101.36V21.2898H77.7694Z" fill="#08546C"/>
<path d="M1.58523 70.0667V56.9757H3.17045V62.8053H10.1506V56.9757H11.7358V70.0667H10.1506V64.2115H3.17045V70.0667H1.58523ZM17.5941 70.2968C16.9719 70.2968 16.4073 70.1796 15.9002 69.9452C15.3931 69.7066 14.9904 69.3635 14.6921 68.9161C14.3938 68.4644 14.2447 67.9189 14.2447 67.2797C14.2447 66.7172 14.3555 66.2613 14.5771 65.9118C14.7987 65.5581 15.0948 65.2811 15.4656 65.0809C15.8363 64.8806 16.2454 64.7314 16.6928 64.6334C17.1445 64.5311 17.5984 64.4502 18.0543 64.3905C18.6509 64.3138 19.1346 64.2563 19.5053 64.2179C19.8803 64.1753 20.1531 64.105 20.3235 64.007C20.4982 63.909 20.5856 63.7385 20.5856 63.4956V63.4445C20.5856 62.8138 20.413 62.3238 20.0678 61.9743C19.7269 61.6249 19.2092 61.4502 18.5146 61.4502C17.7944 61.4502 17.2298 61.6078 16.8207 61.9232C16.4116 62.2385 16.1239 62.5752 15.9577 62.9331L14.5259 62.4218C14.7816 61.8252 15.1225 61.3607 15.5487 61.0283C15.979 60.6917 16.4478 60.4573 16.9549 60.3252C17.4663 60.1888 17.9691 60.1206 18.4634 60.1206C18.7788 60.1206 19.141 60.159 19.5501 60.2357C19.9634 60.3081 20.3619 60.4594 20.7454 60.6895C21.1332 60.9196 21.4549 61.2669 21.7106 61.7314C21.9663 62.1959 22.0941 62.8181 22.0941 63.5979V70.0667H20.5856V68.7371H20.5089C20.4066 68.9502 20.2362 69.1782 19.9975 69.4211C19.7589 69.664 19.4414 69.8706 19.0451 70.0411C18.6488 70.2115 18.1651 70.2968 17.5941 70.2968ZM17.8242 68.9417C18.4208 68.9417 18.9237 68.8245 19.3327 68.5901C19.7461 68.3557 20.0572 68.0532 20.266 67.6824C20.479 67.3117 20.5856 66.9218 20.5856 66.5127V65.132C20.5217 65.2087 20.381 65.279 20.1637 65.3429C19.9506 65.4026 19.7035 65.4559 19.4222 65.5027C19.1452 65.5453 18.8746 65.5837 18.6104 65.6178C18.3505 65.6476 18.1396 65.6732 17.9776 65.6945C17.5856 65.7456 17.2191 65.8287 16.8782 65.9438C16.5415 66.0546 16.2688 66.2229 16.06 66.4488C15.8555 66.6703 15.7532 66.9729 15.7532 67.3564C15.7532 67.8806 15.9471 68.2769 16.3349 68.5453C16.7269 68.8095 17.2234 68.9417 17.8242 68.9417ZM24.8475 73.7485V60.2485H26.3049V61.8081H26.4838C26.5946 61.6377 26.748 61.4203 26.9441 61.1561C27.1444 60.8877 27.4299 60.649 27.8006 60.4402C28.1756 60.2272 28.6827 60.1206 29.3219 60.1206C30.1486 60.1206 30.8773 60.3273 31.508 60.7407C32.1387 61.154 32.6309 61.7399 32.9846 62.4985C33.3382 63.257 33.5151 64.1519 33.5151 65.1831C33.5151 66.2229 33.3382 67.1242 32.9846 67.887C32.6309 68.6455 32.1408 69.2336 31.5144 69.6512C30.888 70.0645 30.1657 70.2712 29.3475 70.2712C28.7168 70.2712 28.2118 70.1668 27.8326 69.958C27.4533 69.7449 27.1614 69.5042 26.9569 69.2357C26.7523 68.963 26.5946 68.7371 26.4838 68.5581H26.356V73.7485H24.8475ZM26.3304 65.1576C26.3304 65.899 26.4391 66.5532 26.6564 67.1199C26.8738 67.6824 27.1912 68.1235 27.6088 68.4431C28.0265 68.7584 28.5378 68.9161 29.1429 68.9161C29.7736 68.9161 30.2999 68.7499 30.7218 68.4175C31.1479 68.0809 31.4675 67.6292 31.6806 67.0624C31.8979 66.4914 32.0066 65.8564 32.0066 65.1576C32.0066 64.4672 31.9 63.8451 31.687 63.2911C31.4782 62.7328 31.1607 62.2918 30.7346 61.9679C30.3127 61.6398 29.7821 61.4757 29.1429 61.4757C28.5293 61.4757 28.0137 61.6313 27.5961 61.9424C27.1784 62.2492 26.8631 62.6796 26.65 63.2336C26.437 63.7833 26.3304 64.4246 26.3304 65.1576ZM35.8162 73.7485V60.2485H37.2736V61.8081H37.4526C37.5634 61.6377 37.7168 61.4203 37.9128 61.1561C38.1131 60.8877 38.3986 60.649 38.7694 60.4402C39.1444 60.2272 39.6515 60.1206 40.2907 60.1206C41.1174 60.1206 41.8461 60.3273 42.4767 60.7407C43.1074 61.154 43.5996 61.7399 43.9533 62.4985C44.307 63.257 44.4838 64.1519 44.4838 65.1831C44.4838 66.2229 44.307 67.1242 43.9533 67.887C43.5996 68.6455 43.1096 69.2336 42.4831 69.6512C41.8567 70.0645 41.1344 70.2712 40.3162 70.2712C39.6855 70.2712 39.1806 70.1668 38.8013 69.958C38.4221 69.7449 38.1301 69.5042 37.9256 69.2357C37.7211 68.963 37.5634 68.7371 37.4526 68.5581H37.3248V73.7485H35.8162ZM37.2992 65.1576C37.2992 65.899 37.4078 66.5532 37.6252 67.1199C37.8425 67.6824 38.16 68.1235 38.5776 68.4431C38.9952 68.7584 39.5066 68.9161 40.1117 68.9161C40.7424 68.9161 41.2686 68.7499 41.6905 68.4175C42.1167 68.0809 42.4363 67.6292 42.6493 67.0624C42.8667 66.4914 42.9753 65.8564 42.9753 65.1576C42.9753 64.4672 42.8688 63.8451 42.6557 63.2911C42.4469 62.7328 42.1294 62.2918 41.7033 61.9679C41.2814 61.6398 40.7509 61.4757 40.1117 61.4757C39.498 61.4757 38.9824 61.6313 38.5648 61.9424C38.1472 62.2492 37.8319 62.6796 37.6188 63.2336C37.4057 63.7833 37.2992 64.4246 37.2992 65.1576ZM47.405 73.7485C47.1493 73.7485 46.9213 73.7272 46.7211 73.6845C46.5208 73.6462 46.3823 73.6078 46.3056 73.5695L46.6891 72.2399C47.0556 72.3337 47.3794 72.3678 47.6607 72.3422C47.9419 72.3167 48.1912 72.1909 48.4086 71.9651C48.6301 71.7435 48.8326 71.3834 49.0158 70.8848L49.2971 70.1178L45.6664 60.2485H47.3027L50.013 68.0723H50.1152L52.8255 60.2485H54.4618L50.2942 71.4985C50.1067 72.0056 49.8745 72.4253 49.5975 72.7577C49.3205 73.0943 48.9988 73.3436 48.6323 73.5056C48.2701 73.6675 47.861 73.7485 47.405 73.7485ZM72.2541 61.0667H70.6689C70.5751 60.6107 70.411 60.2101 70.1767 59.8649C69.9466 59.5198 69.6653 59.23 69.3329 58.9956C69.0048 58.757 68.6404 58.578 68.2399 58.4587C67.8393 58.3394 67.4217 58.2797 66.987 58.2797C66.1944 58.2797 65.4764 58.48 64.8329 58.8806C64.1937 59.2811 63.6845 59.8713 63.3052 60.6512C62.9302 61.431 62.7427 62.3877 62.7427 63.5212C62.7427 64.6547 62.9302 65.6114 63.3052 66.3912C63.6845 67.1711 64.1937 67.7613 64.8329 68.1618C65.4764 68.5624 66.1944 68.7627 66.987 68.7627C67.4217 68.7627 67.8393 68.703 68.2399 68.5837C68.6404 68.4644 69.0048 68.2875 69.3329 68.0532C69.6653 67.8145 69.9466 67.5226 70.1767 67.1774C70.411 66.828 70.5751 66.4274 70.6689 65.9757H72.2541C72.1348 66.6448 71.9174 67.2435 71.6021 67.7719C71.2868 68.3003 70.8947 68.7499 70.426 69.1206C69.9572 69.4871 69.4309 69.7662 68.8471 69.958C68.2676 70.1497 67.6475 70.2456 66.987 70.2456C65.8706 70.2456 64.8777 69.9729 64.0083 69.4274C63.139 68.882 62.4551 68.1064 61.9565 67.1007C61.4579 66.0951 61.2086 64.9019 61.2086 63.5212C61.2086 62.1405 61.4579 60.9473 61.9565 59.9417C62.4551 58.936 63.139 58.1604 64.0083 57.6149C64.8777 57.0695 65.8706 56.7968 66.987 56.7968C67.6475 56.7968 68.2676 56.8926 68.8471 57.0844C69.4309 57.2762 69.9572 57.5574 70.426 57.9282C70.8947 58.2946 71.2868 58.7421 71.6021 59.2705C71.9174 59.7946 72.1348 60.3934 72.2541 61.0667ZM76.1197 56.9757V70.0667H74.6112V56.9757H76.1197ZM78.8826 70.0667V60.2485H80.3912V70.0667H78.8826ZM79.6497 58.6121C79.3556 58.6121 79.1021 58.512 78.889 58.3117C78.6802 58.1114 78.5758 57.8706 78.5758 57.5894C78.5758 57.3081 78.6802 57.0674 78.889 56.8671C79.1021 56.6668 79.3556 56.5667 79.6497 56.5667C79.9437 56.5667 80.1951 56.6668 80.4039 56.8671C80.617 57.0674 80.7235 57.3081 80.7235 57.5894C80.7235 57.8706 80.617 58.1114 80.4039 58.3117C80.1951 58.512 79.9437 58.6121 79.6497 58.6121ZM87.2706 70.2712C86.3246 70.2712 85.5085 70.0624 84.8224 69.6448C84.1406 69.2229 83.6143 68.6348 83.2436 67.8806C82.8771 67.122 82.6939 66.2399 82.6939 65.2343C82.6939 64.2286 82.8771 63.3422 83.2436 62.5752C83.6143 61.8039 84.13 61.203 84.7905 60.7726C85.4553 60.338 86.2308 60.1206 87.1172 60.1206C87.6286 60.1206 88.1335 60.2059 88.6321 60.3763C89.1307 60.5468 89.5845 60.8238 89.9936 61.2073C90.4027 61.5865 90.7287 62.0894 90.9716 62.7158C91.2145 63.3422 91.3359 64.1135 91.3359 65.0297V65.6689H83.7678V64.3649H89.8018C89.8018 63.811 89.6911 63.3167 89.4695 62.882C89.2521 62.4473 88.9411 62.1043 88.5362 61.8529C88.1357 61.6015 87.6626 61.4757 87.1172 61.4757C86.5163 61.4757 85.9964 61.6249 85.5575 61.9232C85.1229 62.2172 84.7884 62.6007 84.554 63.0738C84.3196 63.5468 84.2024 64.0539 84.2024 64.5951V65.4644C84.2024 66.2059 84.3303 66.8344 84.5859 67.35C84.8459 67.8614 85.206 68.2513 85.6662 68.5198C86.1264 68.784 86.6612 68.9161 87.2706 68.9161C87.6669 68.9161 88.0249 68.8607 88.3445 68.7499C88.6683 68.6348 88.9474 68.4644 89.1818 68.2385C89.4162 68.0084 89.5973 67.7229 89.7251 67.382L91.1825 67.7911C91.0291 68.2854 90.7713 68.7201 90.4091 69.0951C90.0469 69.4658 89.5994 69.7556 89.0668 69.9644C88.5341 70.1689 87.9354 70.2712 87.2706 70.2712ZM95.1392 64.1604V70.0667H93.6307V60.2485H95.0881V61.7826H95.2159C95.446 61.284 95.7955 60.8834 96.2642 60.5809C96.733 60.274 97.3381 60.1206 98.0795 60.1206C98.7443 60.1206 99.326 60.257 99.8246 60.5297C100.323 60.7982 100.711 61.2073 100.988 61.757C101.265 62.3024 101.403 62.9928 101.403 63.828V70.0667H99.8949V63.9303C99.8949 63.159 99.6946 62.5581 99.294 62.1277C98.8935 61.6931 98.3438 61.4757 97.6449 61.4757C97.1634 61.4757 96.733 61.5801 96.3537 61.789C95.9787 61.9978 95.6825 62.3024 95.4652 62.703C95.2479 63.1036 95.1392 63.5894 95.1392 64.1604ZM108.43 60.2485V61.5269H103.342V60.2485H108.43ZM104.825 57.8962H106.333V67.2542C106.333 67.6803 106.395 67.9999 106.519 68.213C106.646 68.4218 106.808 68.5624 107.004 68.6348C107.205 68.703 107.416 68.7371 107.637 68.7371C107.803 68.7371 107.94 68.7286 108.046 68.7115C108.153 68.6902 108.238 68.6732 108.302 68.6604L108.609 70.0155C108.507 70.0539 108.364 70.0922 108.181 70.1306C107.997 70.1732 107.765 70.1945 107.484 70.1945C107.058 70.1945 106.64 70.1029 106.231 69.9196C105.826 69.7364 105.49 69.4573 105.221 69.0823C104.957 68.7073 104.825 68.2343 104.825 67.6632V57.8962ZM117.478 62.4473L116.123 62.8309C116.037 62.605 115.912 62.3855 115.746 62.1725C115.584 61.9551 115.362 61.7762 115.081 61.6355C114.8 61.4949 114.439 61.4246 114.001 61.4246C113.4 61.4246 112.899 61.5631 112.498 61.8401C112.102 62.1128 111.904 62.4601 111.904 62.882C111.904 63.257 112.04 63.5532 112.313 63.7705C112.586 63.9878 113.012 64.1689 113.591 64.3138L115.049 64.6718C115.927 64.8848 116.581 65.2108 117.011 65.6497C117.442 66.0844 117.657 66.6448 117.657 67.3309C117.657 67.8934 117.495 68.3962 117.171 68.8394C116.851 69.2826 116.404 69.632 115.829 69.8877C115.253 70.1434 114.584 70.2712 113.822 70.2712C112.82 70.2712 111.991 70.0539 111.335 69.6192C110.679 69.1845 110.263 68.5496 110.089 67.7144L111.52 67.3564C111.657 67.8848 111.915 68.2811 112.294 68.5453C112.677 68.8095 113.178 68.9417 113.796 68.9417C114.499 68.9417 115.057 68.7925 115.471 68.4942C115.888 68.1917 116.097 67.8294 116.097 67.4076C116.097 67.0667 115.978 66.7811 115.739 66.551C115.501 66.3167 115.134 66.1419 114.64 66.0269L113.003 65.6434C112.104 65.4303 111.444 65.1 111.022 64.6526C110.604 64.2009 110.395 63.6363 110.395 62.9587C110.395 62.4047 110.551 61.9147 110.862 61.4885C111.177 61.0624 111.606 60.7279 112.147 60.485C112.692 60.2421 113.31 60.1206 114.001 60.1206C114.972 60.1206 115.735 60.3337 116.289 60.7598C116.847 61.186 117.243 61.7485 117.478 62.4473Z" fill="#08546C"/>
</svg>
