<svg width="152" height="74" viewBox="0 0 152 74" fill="none" xmlns="http://www.w3.org/2000/svg">
<path d="M27.6307 36.4773C25.1761 36.4773 22.9943 36.0568 21.0852 35.2159C19.1875 34.375 17.6875 33.2045 16.5852 31.7045C15.483 30.2045 14.8977 28.4716 14.8295 26.5057H21.2386C21.2955 27.4489 21.608 28.2727 22.1761 28.9773C22.7443 29.6705 23.5 30.2102 24.4432 30.5966C25.3864 30.983 26.4432 31.1761 27.6136 31.1761C28.8636 31.1761 29.9716 30.9602 30.9375 30.5284C31.9034 30.0852 32.6591 29.4716 33.2045 28.6875C33.75 27.9034 34.017 27 34.0057 25.9773C34.017 24.9205 33.7443 23.9886 33.1875 23.1818C32.6307 22.375 31.8239 21.7443 30.767 21.2898C29.7216 20.8352 28.4602 20.608 26.983 20.608H23.8977V15.733H26.983C28.1989 15.733 29.2614 15.5227 30.1705 15.1023C31.0909 14.6818 31.8125 14.0909 32.3352 13.3295C32.858 12.5568 33.1136 11.6648 33.1023 10.6534C33.1136 9.66477 32.892 8.80682 32.4375 8.07955C31.9943 7.34091 31.3636 6.76704 30.5455 6.35795C29.7386 5.94886 28.7898 5.74432 27.6989 5.74432C26.6307 5.74432 25.642 5.9375 24.733 6.32386C23.8239 6.71023 23.0909 7.26136 22.5341 7.97727C21.9773 8.68182 21.6818 9.52273 21.6477 10.5H15.5625C15.608 8.54545 16.1705 6.82955 17.25 5.35227C18.3409 3.86364 19.7955 2.70454 21.6136 1.875C23.4318 1.03409 25.4716 0.613635 27.733 0.613635C30.0625 0.613635 32.0852 1.05114 33.8011 1.92614C35.5284 2.78977 36.8636 3.95454 37.8068 5.42045C38.75 6.88636 39.2216 8.50568 39.2216 10.2784C39.233 12.2443 38.6534 13.892 37.483 15.2216C36.3239 16.5511 34.8011 17.4205 32.9148 17.8295V18.1023C35.3693 18.4432 37.25 19.3523 38.5568 20.8295C39.875 22.2955 40.5284 24.1193 40.517 26.3011C40.517 28.2557 39.9602 30.0057 38.8466 31.5511C37.7443 33.0852 36.2216 34.2898 34.2784 35.1648C32.3466 36.0398 30.1307 36.4773 27.6307 36.4773ZM59.2713 36.6648C56.4645 36.6648 54.0554 35.9545 52.044 34.5341C50.044 33.1023 48.5043 31.0398 47.4247 28.3466C46.3565 25.642 45.8224 22.3864 45.8224 18.5795C45.8338 14.7727 46.3736 11.5341 47.4418 8.86364C48.5213 6.18182 50.0611 4.13636 52.0611 2.72727C54.0724 1.31818 56.4759 0.613635 59.2713 0.613635C62.0668 0.613635 64.4702 1.31818 66.4815 2.72727C68.4929 4.13636 70.0327 6.18182 71.1009 8.86364C72.1804 11.5455 72.7202 14.7841 72.7202 18.5795C72.7202 22.3977 72.1804 25.6591 71.1009 28.3636C70.0327 31.0568 68.4929 33.1136 66.4815 34.5341C64.4815 35.9545 62.0781 36.6648 59.2713 36.6648ZM59.2713 31.3295C61.4531 31.3295 63.1747 30.2557 64.4361 28.108C65.7088 25.9489 66.3452 22.7727 66.3452 18.5795C66.3452 15.8068 66.0554 13.4773 65.4759 11.5909C64.8963 9.70454 64.0781 8.28409 63.0213 7.32955C61.9645 6.36364 60.7145 5.88068 59.2713 5.88068C57.1009 5.88068 55.3849 6.96023 54.1236 9.11932C52.8622 11.267 52.2259 14.4205 52.2145 18.5795C52.2031 21.3636 52.4815 23.7045 53.0497 25.6023C53.6293 27.5 54.4474 28.9318 55.5043 29.8977C56.5611 30.8523 57.8168 31.3295 59.2713 31.3295ZM91.2869 36.6648C88.4801 36.6648 86.071 35.9545 84.0597 34.5341C82.0597 33.1023 80.5199 31.0398 79.4403 28.3466C78.3722 25.642 77.8381 22.3864 77.8381 18.5795C77.8494 14.7727 78.3892 11.5341 79.4574 8.86364C80.5369 6.18182 82.0767 4.13636 84.0767 2.72727C86.0881 1.31818 88.4915 0.613635 91.2869 0.613635C94.0824 0.613635 96.4858 1.31818 98.4972 2.72727C100.509 4.13636 102.048 6.18182 103.116 8.86364C104.196 11.5455 104.736 14.7841 104.736 18.5795C104.736 22.3977 104.196 25.6591 103.116 28.3636C102.048 31.0568 100.509 33.1136 98.4972 34.5341C96.4972 35.9545 94.0938 36.6648 91.2869 36.6648ZM91.2869 31.3295C93.4688 31.3295 95.1903 30.2557 96.4517 28.108C97.7244 25.9489 98.3608 22.7727 98.3608 18.5795C98.3608 15.8068 98.071 13.4773 97.4915 11.5909C96.9119 9.70454 96.0938 8.28409 95.0369 7.32955C93.9801 6.36364 92.7301 5.88068 91.2869 5.88068C89.1165 5.88068 87.4006 6.96023 86.1392 9.11932C84.8778 11.267 84.2415 14.4205 84.2301 18.5795C84.2188 21.3636 84.4972 23.7045 85.0653 25.6023C85.6449 27.5 86.4631 28.9318 87.5199 29.8977C88.5767 30.8523 89.8324 31.3295 91.2869 31.3295ZM120.763 30.4091V6.81818H126.115V30.4091H120.763ZM111.643 21.2898V15.9375H135.234V21.2898H111.643Z" fill="#08546C"/>
<path d="M1.58523 70.0667V56.9757H6.00852C7.03551 56.9757 7.875 57.1611 8.52699 57.5318C9.18324 57.8983 9.66903 58.3948 9.98438 59.0212C10.2997 59.6476 10.4574 60.3465 10.4574 61.1178C10.4574 61.8891 10.2997 62.5901 9.98438 63.2208C9.6733 63.8515 9.19176 64.3543 8.53977 64.7293C7.88778 65.1 7.05256 65.2854 6.03409 65.2854H2.86364V63.8792H5.98295C6.68608 63.8792 7.25071 63.7577 7.67685 63.5148C8.10298 63.2719 8.41193 62.9438 8.60369 62.5304C8.79972 62.1128 8.89773 61.6419 8.89773 61.1178C8.89773 60.5936 8.79972 60.1249 8.60369 59.7115C8.41193 59.2982 8.10085 58.9743 7.67045 58.7399C7.24006 58.5013 6.66903 58.382 5.95739 58.382H3.17045V70.0667H1.58523ZM12.8065 70.0667V60.2485H14.2638V61.7314H14.3661C14.5451 61.2456 14.869 60.8515 15.3377 60.5489C15.8065 60.2463 16.3349 60.0951 16.9229 60.0951C17.0337 60.0951 17.1722 60.0972 17.3384 60.1015C17.5046 60.1057 17.6303 60.1121 17.7156 60.1206V61.6547C17.6644 61.6419 17.5472 61.6228 17.364 61.5972C17.185 61.5674 16.9954 61.5524 16.7951 61.5524C16.3178 61.5524 15.8917 61.6526 15.5167 61.8529C15.146 62.0489 14.8519 62.3216 14.6346 62.6711C14.4215 63.0162 14.315 63.4104 14.315 63.8536V70.0667H12.8065ZM23.1935 70.2712C22.3072 70.2712 21.5295 70.0603 20.8604 69.6384C20.1957 69.2165 19.6758 68.6263 19.3008 67.8678C18.93 67.1093 18.7447 66.2229 18.7447 65.2087C18.7447 64.186 18.93 63.2932 19.3008 62.5304C19.6758 61.7676 20.1957 61.1753 20.8604 60.7534C21.5295 60.3316 22.3072 60.1206 23.1935 60.1206C24.0799 60.1206 24.8555 60.3316 25.5202 60.7534C26.1893 61.1753 26.7092 61.7676 27.0799 62.5304C27.4549 63.2932 27.6424 64.186 27.6424 65.2087C27.6424 66.2229 27.4549 67.1093 27.0799 67.8678C26.7092 68.6263 26.1893 69.2165 25.5202 69.6384C24.8555 70.0603 24.0799 70.2712 23.1935 70.2712ZM23.1935 68.9161C23.8668 68.9161 24.4208 68.7435 24.8555 68.3983C25.2901 68.0532 25.6119 67.5993 25.8207 67.0368C26.0295 66.4743 26.1339 65.8649 26.1339 65.2087C26.1339 64.5524 26.0295 63.9409 25.8207 63.3742C25.6119 62.8074 25.2901 62.3493 24.8555 61.9999C24.4208 61.6505 23.8668 61.4757 23.1935 61.4757C22.5202 61.4757 21.9663 61.6505 21.5316 61.9999C21.0969 62.3493 20.7752 62.8074 20.5664 63.3742C20.3576 63.9409 20.2532 64.5524 20.2532 65.2087C20.2532 65.8649 20.3576 66.4743 20.5664 67.0368C20.7752 67.5993 21.0969 68.0532 21.5316 68.3983C21.9663 68.7435 22.5202 68.9161 23.1935 68.9161ZM29.9451 60.2485H31.4537V70.7826C31.4537 71.3877 31.3493 71.9118 31.1404 72.355C30.9359 72.7982 30.6248 73.1412 30.2072 73.3841C29.7939 73.627 29.2718 73.7485 28.6412 73.7485C28.59 73.7485 28.5389 73.7485 28.4877 73.7485C28.4366 73.7485 28.3855 73.7485 28.3343 73.7485V72.3422C28.3855 72.3422 28.4324 72.3422 28.475 72.3422C28.5176 72.3422 28.5645 72.3422 28.6156 72.3422C29.0758 72.3422 29.4125 72.2059 29.6255 71.9331C29.8386 71.6647 29.9451 71.2811 29.9451 70.7826V60.2485ZM30.6866 58.6121C30.3926 58.6121 30.139 58.512 29.926 58.3117C29.7172 58.1114 29.6127 57.8706 29.6127 57.5894C29.6127 57.3081 29.7172 57.0674 29.926 56.8671C30.139 56.6668 30.3926 56.5667 30.6866 56.5667C30.9806 56.5667 31.2321 56.6668 31.4409 56.8671C31.6539 57.0674 31.7605 57.3081 31.7605 57.5894C31.7605 57.8706 31.6539 58.1114 31.4409 58.3117C31.2321 58.512 30.9806 58.6121 30.6866 58.6121ZM38.3331 70.2712C37.3871 70.2712 36.571 70.0624 35.8849 69.6448C35.2031 69.2229 34.6768 68.6348 34.3061 67.8806C33.9396 67.122 33.7564 66.2399 33.7564 65.2343C33.7564 64.2286 33.9396 63.3422 34.3061 62.5752C34.6768 61.8039 35.1925 61.203 35.853 60.7726C36.5178 60.338 37.2933 60.1206 38.1797 60.1206C38.6911 60.1206 39.196 60.2059 39.6946 60.3763C40.1932 60.5468 40.647 60.8238 41.0561 61.2073C41.4652 61.5865 41.7912 62.0894 42.0341 62.7158C42.277 63.3422 42.3984 64.1135 42.3984 65.0297V65.6689H34.8303V64.3649H40.8643C40.8643 63.811 40.7536 63.3167 40.532 62.882C40.3146 62.4473 40.0036 62.1043 39.5987 61.8529C39.1982 61.6015 38.7251 61.4757 38.1797 61.4757C37.5788 61.4757 37.0589 61.6249 36.62 61.9232C36.1854 62.2172 35.8509 62.6007 35.6165 63.0738C35.3821 63.5468 35.2649 64.0539 35.2649 64.5951V65.4644C35.2649 66.2059 35.3928 66.8344 35.6484 67.35C35.9084 67.8614 36.2685 68.2513 36.7287 68.5198C37.1889 68.784 37.7237 68.9161 38.3331 68.9161C38.7294 68.9161 39.0874 68.8607 39.407 68.7499C39.7308 68.6348 40.0099 68.4644 40.2443 68.2385C40.4787 68.0084 40.6598 67.7229 40.7876 67.382L42.245 67.7911C42.0916 68.2854 41.8338 68.7201 41.4716 69.0951C41.1094 69.4658 40.6619 69.7556 40.1293 69.9644C39.5966 70.1689 38.9979 70.2712 38.3331 70.2712ZM48.6818 70.2712C47.7614 70.2712 46.9688 70.0539 46.304 69.6192C45.6392 69.1845 45.1278 68.5858 44.7699 67.823C44.4119 67.0603 44.233 66.1888 44.233 65.2087C44.233 64.2115 44.4162 63.3316 44.7827 62.5688C45.1534 61.8017 45.669 61.203 46.3295 60.7726C46.9943 60.338 47.7699 60.1206 48.6562 60.1206C49.3466 60.1206 49.9688 60.2485 50.5227 60.5042C51.0767 60.7598 51.5305 61.1178 51.8842 61.578C52.2379 62.0382 52.4574 62.5752 52.5426 63.1888H51.0341C50.919 62.7414 50.6634 62.3451 50.267 61.9999C49.875 61.6505 49.3466 61.4757 48.6818 61.4757C48.0938 61.4757 47.5781 61.6292 47.1349 61.936C46.696 62.2385 46.353 62.6668 46.1058 63.2208C45.8629 63.7705 45.7415 64.4161 45.7415 65.1576C45.7415 65.9161 45.8608 66.5766 46.0994 67.1391C46.3423 67.7016 46.6832 68.1384 47.1222 68.4495C47.5653 68.7605 48.0852 68.9161 48.6818 68.9161C49.0739 68.9161 49.4297 68.8479 49.7493 68.7115C50.0689 68.5752 50.3395 68.3792 50.5611 68.1235C50.7827 67.8678 50.9403 67.561 51.0341 67.203H52.5426C52.4574 67.7826 52.2464 68.3046 51.9098 68.7691C51.5774 69.2293 51.1364 69.5958 50.5866 69.8685C50.0412 70.137 49.4063 70.2712 48.6818 70.2712ZM59.0178 60.2485V61.5269H53.9297V60.2485H59.0178ZM55.4126 57.8962H56.9212V67.2542C56.9212 67.6803 56.983 67.9999 57.1065 68.213C57.2344 68.4218 57.3963 68.5624 57.5923 68.6348C57.7926 68.703 58.0036 68.7371 58.2251 68.7371C58.3913 68.7371 58.5277 68.7286 58.6342 68.7115C58.7408 68.6902 58.826 68.6732 58.8899 68.6604L59.1967 70.0155C59.0945 70.0539 58.9517 70.0922 58.7685 70.1306C58.5852 70.1732 58.353 70.1945 58.0717 70.1945C57.6456 70.1945 57.228 70.1029 56.8189 69.9196C56.4141 69.7364 56.0774 69.4573 55.8089 69.0823C55.5447 68.7073 55.4126 68.2343 55.4126 67.6632V57.8962ZM70.5938 70.0667H66.554V56.9757H70.7727C72.0426 56.9757 73.1293 57.2378 74.0327 57.762C74.9361 58.2818 75.6286 59.0297 76.1101 60.0056C76.5916 60.9772 76.8324 62.1405 76.8324 63.4956C76.8324 64.8593 76.5895 66.0333 76.1037 67.0176C75.6179 67.9978 74.9105 68.752 73.9815 69.2804C73.0526 69.8046 71.9233 70.0667 70.5938 70.0667ZM68.1392 68.6604H70.4915C71.5739 68.6604 72.4709 68.4516 73.1825 68.034C73.8942 67.6164 74.4247 67.0219 74.7741 66.2506C75.1236 65.4793 75.2983 64.561 75.2983 63.4956C75.2983 62.4388 75.1257 61.529 74.7805 60.7662C74.4354 59.9992 73.9197 59.4111 73.2337 59.002C72.5476 58.5887 71.6932 58.382 70.6705 58.382H68.1392V68.6604ZM83.4034 70.2712C82.4574 70.2712 81.6413 70.0624 80.9553 69.6448C80.2734 69.2229 79.7472 68.6348 79.3764 67.8806C79.0099 67.122 78.8267 66.2399 78.8267 65.2343C78.8267 64.2286 79.0099 63.3422 79.3764 62.5752C79.7472 61.8039 80.2628 61.203 80.9233 60.7726C81.5881 60.338 82.3636 60.1206 83.25 60.1206C83.7614 60.1206 84.2663 60.2059 84.7649 60.3763C85.2635 60.5468 85.7173 60.8238 86.1264 61.2073C86.5355 61.5865 86.8615 62.0894 87.1044 62.7158C87.3473 63.3422 87.4688 64.1135 87.4688 65.0297V65.6689H79.9006V64.3649H85.9347C85.9347 63.811 85.8239 63.3167 85.6023 62.882C85.3849 62.4473 85.0739 62.1043 84.669 61.8529C84.2685 61.6015 83.7955 61.4757 83.25 61.4757C82.6491 61.4757 82.1293 61.6249 81.6903 61.9232C81.2557 62.2172 80.9212 62.6007 80.6868 63.0738C80.4524 63.5468 80.3352 64.0539 80.3352 64.5951V65.4644C80.3352 66.2059 80.4631 66.8344 80.7188 67.35C80.9787 67.8614 81.3388 68.2513 81.799 68.5198C82.2592 68.784 82.794 68.9161 83.4034 68.9161C83.7997 68.9161 84.1577 68.8607 84.4773 68.7499C84.8011 68.6348 85.0803 68.4644 85.3146 68.2385C85.549 68.0084 85.7301 67.7229 85.858 67.382L87.3153 67.7911C87.1619 68.2854 86.9041 68.7201 86.5419 69.0951C86.1797 69.4658 85.7322 69.7556 85.1996 69.9644C84.6669 70.1689 84.0682 70.2712 83.4034 70.2712ZM91.272 56.9757V70.0667H89.7635V56.9757H91.272ZM94.035 70.0667V60.2485H95.5435V70.0667H94.035ZM94.802 58.6121C94.508 58.6121 94.2544 58.512 94.0414 58.3117C93.8326 58.1114 93.7282 57.8706 93.7282 57.5894C93.7282 57.3081 93.8326 57.0674 94.0414 56.8671C94.2544 56.6668 94.508 56.5667 94.802 56.5667C95.0961 56.5667 95.3475 56.6668 95.5563 56.8671C95.7694 57.0674 95.8759 57.3081 95.8759 57.5894C95.8759 57.8706 95.7694 58.1114 95.5563 58.3117C95.3475 58.512 95.0961 58.6121 94.802 58.6121ZM106.335 60.2485L102.704 70.0667H101.17L97.5394 60.2485H99.1758L101.886 68.0723H101.988L104.699 60.2485H106.335ZM112.091 70.2712C111.145 70.2712 110.329 70.0624 109.643 69.6448C108.961 69.2229 108.435 68.6348 108.064 67.8806C107.697 67.122 107.514 66.2399 107.514 65.2343C107.514 64.2286 107.697 63.3422 108.064 62.5752C108.435 61.8039 108.95 61.203 109.611 60.7726C110.276 60.338 111.051 60.1206 111.938 60.1206C112.449 60.1206 112.954 60.2059 113.452 60.3763C113.951 60.5468 114.405 60.8238 114.814 61.2073C115.223 61.5865 115.549 62.0894 115.792 62.7158C116.035 63.3422 116.156 64.1135 116.156 65.0297V65.6689H108.588V64.3649H114.622C114.622 63.811 114.511 63.3167 114.29 62.882C114.072 62.4473 113.761 62.1043 113.357 61.8529C112.956 61.6015 112.483 61.4757 111.938 61.4757C111.337 61.4757 110.817 61.6249 110.378 61.9232C109.943 62.2172 109.609 62.6007 109.374 63.0738C109.14 63.5468 109.023 64.0539 109.023 64.5951V65.4644C109.023 66.2059 109.151 66.8344 109.406 67.35C109.666 67.8614 110.026 68.2513 110.487 68.5198C110.947 68.784 111.482 68.9161 112.091 68.9161C112.487 68.9161 112.845 68.8607 113.165 68.7499C113.489 68.6348 113.768 68.4644 114.002 68.2385C114.237 68.0084 114.418 67.7229 114.545 67.382L116.003 67.7911C115.849 68.2854 115.592 68.7201 115.229 69.0951C114.867 69.4658 114.42 69.7556 113.887 69.9644C113.354 70.1689 112.756 70.2712 112.091 70.2712ZM118.451 70.0667V60.2485H119.908V61.7314H120.011C120.19 61.2456 120.513 60.8515 120.982 60.5489C121.451 60.2463 121.979 60.0951 122.567 60.0951C122.678 60.0951 122.817 60.0972 122.983 60.1015C123.149 60.1057 123.275 60.1121 123.36 60.1206V61.6547C123.309 61.6419 123.192 61.6228 123.009 61.5972C122.83 61.5674 122.64 61.5524 122.44 61.5524C121.962 61.5524 121.536 61.6526 121.161 61.8529C120.79 62.0489 120.496 62.3216 120.279 62.6711C120.066 63.0162 119.96 63.4104 119.96 63.8536V70.0667H118.451ZM126.419 73.7485C126.163 73.7485 125.935 73.7272 125.735 73.6845C125.534 73.6462 125.396 73.6078 125.319 73.5695L125.703 72.2399C126.069 72.3337 126.393 72.3678 126.674 72.3422C126.956 72.3167 127.205 72.1909 127.422 71.9651C127.644 71.7435 127.846 71.3834 128.029 70.8848L128.311 70.1178L124.68 60.2485H126.316L129.027 68.0723H129.129L131.839 60.2485H133.475L129.308 71.4985C129.12 72.0056 128.888 72.4253 128.611 72.7577C128.334 73.0943 128.012 73.3436 127.646 73.5056C127.284 73.6675 126.875 73.7485 126.419 73.7485Z" fill="#08546C"/>
</svg>
