<svg width="151" height="74" viewBox="0 0 151 74" fill="none" xmlns="http://www.w3.org/2000/svg">
<path d="M74.735 36.4773C72.2009 36.4773 69.9509 36.0511 67.985 35.1989C66.0305 34.3466 64.4964 33.1818 63.3827 31.7045C62.2805 30.2159 61.735 28.5284 61.7464 26.642C61.735 25.1761 62.0532 23.8295 62.7009 22.6023C63.3486 21.375 64.2236 20.3523 65.3259 19.5341C66.4395 18.7045 67.6782 18.1761 69.0418 17.9489V17.7102C67.2464 17.3125 65.7918 16.3977 64.6782 14.9659C63.5759 13.5227 63.0305 11.858 63.0418 9.97159C63.0305 8.17614 63.5305 6.57386 64.5418 5.16477C65.5532 3.75568 66.9395 2.64773 68.7009 1.84091C70.4623 1.02273 72.4736 0.613635 74.735 0.613635C76.9736 0.613635 78.968 1.02273 80.718 1.84091C82.4793 2.64773 83.8657 3.75568 84.877 5.16477C85.8998 6.57386 86.4111 8.17614 86.4111 9.97159C86.4111 11.858 85.8486 13.5227 84.7236 14.9659C83.61 16.3977 82.1725 17.3125 80.4111 17.7102V17.9489C81.7748 18.1761 83.002 18.7045 84.093 19.5341C85.1952 20.3523 86.0702 21.375 86.718 22.6023C87.377 23.8295 87.7066 25.1761 87.7066 26.642C87.7066 28.5284 87.1498 30.2159 86.0361 31.7045C84.9225 33.1818 83.3884 34.3466 81.4339 35.1989C79.4907 36.0511 77.2577 36.4773 74.735 36.4773ZM74.735 31.6023C76.0418 31.6023 77.1782 31.3807 78.1441 30.9375C79.11 30.483 79.86 29.8466 80.3941 29.0284C80.9282 28.2102 81.2009 27.267 81.2123 26.1989C81.2009 25.0852 80.9111 24.1023 80.343 23.25C79.7861 22.3864 79.0191 21.7102 78.0418 21.2216C77.0759 20.733 75.9736 20.4886 74.735 20.4886C73.485 20.4886 72.3714 20.733 71.3941 21.2216C70.4168 21.7102 69.6441 22.3864 69.0759 23.25C68.5191 24.1023 68.2464 25.0852 68.2577 26.1989C68.2464 27.267 68.5077 28.2102 69.0418 29.0284C69.5759 29.8352 70.3259 30.4659 71.2918 30.9205C72.2691 31.375 73.4168 31.6023 74.735 31.6023ZM74.735 15.6989C75.8032 15.6989 76.7464 15.483 77.5645 15.0511C78.3941 14.6193 79.0475 14.017 79.5248 13.2443C80.002 12.4716 80.2464 11.5795 80.2577 10.5682C80.2464 9.56818 80.0077 8.69318 79.5418 7.94318C79.0759 7.18182 78.4282 6.59659 77.5986 6.1875C76.7691 5.76704 75.8145 5.55682 74.735 5.55682C73.6327 5.55682 72.6611 5.76704 71.8202 6.1875C70.9907 6.59659 70.343 7.18182 69.877 7.94318C69.4225 8.69318 69.2009 9.56818 69.2123 10.5682C69.2009 11.5795 69.4282 12.4716 69.8941 13.2443C70.3714 14.0057 71.0248 14.608 71.8543 15.0511C72.6952 15.483 73.6555 15.6989 74.735 15.6989Z" fill="#08546C"/>
<path d="M0.460227 56.9757H2.27557L5.90625 63.0865H6.05966L9.69034 56.9757H11.5057L6.77557 64.6718V70.0667H5.19034V64.6718L0.460227 56.9757ZM16.0792 70.2712C15.1332 70.2712 14.3171 70.0624 13.631 69.6448C12.9492 69.2229 12.4229 68.6348 12.0522 67.8806C11.6857 67.122 11.5025 66.2399 11.5025 65.2343C11.5025 64.2286 11.6857 63.3422 12.0522 62.5752C12.4229 61.8039 12.9386 61.203 13.5991 60.7726C14.2638 60.338 15.0394 60.1206 15.9258 60.1206C16.4371 60.1206 16.9421 60.2059 17.4407 60.3763C17.9393 60.5468 18.3931 60.8238 18.8022 61.2073C19.2113 61.5865 19.5373 62.0894 19.7802 62.7158C20.0231 63.3422 20.1445 64.1135 20.1445 65.0297V65.6689H12.5763V64.3649H18.6104C18.6104 63.811 18.4996 63.3167 18.2781 62.882C18.0607 62.4473 17.7496 62.1043 17.3448 61.8529C16.9442 61.6015 16.4712 61.4757 15.9258 61.4757C15.3249 61.4757 14.805 61.6249 14.3661 61.9232C13.9315 62.2172 13.5969 62.6007 13.3626 63.0738C13.1282 63.5468 13.011 64.0539 13.011 64.5951V65.4644C13.011 66.2059 13.1388 66.8344 13.3945 67.35C13.6545 67.8614 14.0146 68.2513 14.4748 68.5198C14.935 68.784 15.4698 68.9161 16.0792 68.9161C16.4755 68.9161 16.8335 68.8607 17.1531 68.7499C17.4769 68.6348 17.756 68.4644 17.9904 68.2385C18.2248 68.0084 18.4059 67.7229 18.5337 67.382L19.9911 67.7911C19.8377 68.2854 19.5799 68.7201 19.2177 69.0951C18.8555 69.4658 18.408 69.7556 17.8754 69.9644C17.3427 70.1689 16.744 70.2712 16.0792 70.2712ZM25.3285 70.2968C24.7063 70.2968 24.1417 70.1796 23.6346 69.9452C23.1275 69.7066 22.7248 69.3635 22.4265 68.9161C22.1282 68.4644 21.979 67.9189 21.979 67.2797C21.979 66.7172 22.0898 66.2613 22.3114 65.9118C22.533 65.5581 22.8292 65.2811 23.1999 65.0809C23.5707 64.8806 23.9798 64.7314 24.4272 64.6334C24.8789 64.5311 25.3327 64.4502 25.7887 64.3905C26.3853 64.3138 26.869 64.2563 27.2397 64.2179C27.6147 64.1753 27.8874 64.105 28.0579 64.007C28.2326 63.909 28.32 63.7385 28.32 63.4956V63.4445C28.32 62.8138 28.1474 62.3238 27.8022 61.9743C27.4613 61.6249 26.9435 61.4502 26.2489 61.4502C25.5288 61.4502 24.9641 61.6078 24.555 61.9232C24.146 62.2385 23.8583 62.5752 23.6921 62.9331L22.2603 62.4218C22.516 61.8252 22.8569 61.3607 23.283 61.0283C23.7134 60.6917 24.1822 60.4573 24.6893 60.3252C25.2006 60.1888 25.7035 60.1206 26.1978 60.1206C26.5131 60.1206 26.8754 60.159 27.2844 60.2357C27.6978 60.3081 28.0962 60.4594 28.4798 60.6895C28.8675 60.9196 29.1893 61.2669 29.445 61.7314C29.7006 62.1959 29.8285 62.8181 29.8285 63.5979V70.0667H28.32V68.7371H28.2433C28.141 68.9502 27.9705 69.1782 27.7319 69.4211C27.4933 69.664 27.1758 69.8706 26.7795 70.0411C26.3832 70.2115 25.8995 70.2968 25.3285 70.2968ZM25.5586 68.9417C26.1552 68.9417 26.658 68.8245 27.0671 68.5901C27.4805 68.3557 27.7915 68.0532 28.0004 67.6824C28.2134 67.3117 28.32 66.9218 28.32 66.5127V65.132C28.256 65.2087 28.1154 65.279 27.8981 65.3429C27.685 65.4026 27.4379 65.4559 27.1566 65.5027C26.8796 65.5453 26.609 65.5837 26.3448 65.6178C26.0849 65.6476 25.8739 65.6732 25.712 65.6945C25.32 65.7456 24.9535 65.8287 24.6126 65.9438C24.2759 66.0546 24.0032 66.2229 23.7944 66.4488C23.5898 66.6703 23.4876 66.9729 23.4876 67.3564C23.4876 67.8806 23.6815 68.2769 24.0692 68.5453C24.4613 68.8095 24.9577 68.9417 25.5586 68.9417ZM32.5819 70.0667V60.2485H34.0392V61.7314H34.1415C34.3205 61.2456 34.6444 60.8515 35.1131 60.5489C35.5819 60.2463 36.1103 60.0951 36.6983 60.0951C36.8091 60.0951 36.9476 60.0972 37.1138 60.1015C37.28 60.1057 37.4057 60.1121 37.4909 60.1206V61.6547C37.4398 61.6419 37.3226 61.6228 37.1394 61.5972C36.9604 61.5674 36.7708 61.5524 36.5705 61.5524C36.0932 61.5524 35.6671 61.6526 35.2921 61.8529C34.9213 62.0489 34.6273 62.3216 34.41 62.6711C34.1969 63.0162 34.0904 63.4104 34.0904 63.8536V70.0667H32.5819ZM46.2337 62.4473L44.8786 62.8309C44.7933 62.605 44.6676 62.3855 44.5014 62.1725C44.3395 61.9551 44.1179 61.7762 43.8366 61.6355C43.5554 61.4949 43.1953 61.4246 42.7564 61.4246C42.1555 61.4246 41.6548 61.5631 41.2543 61.8401C40.858 62.1128 40.6598 62.4601 40.6598 62.882C40.6598 63.257 40.7962 63.5532 41.0689 63.7705C41.3416 63.9878 41.7678 64.1689 42.3473 64.3138L43.8047 64.6718C44.6825 64.8848 45.3366 65.2108 45.767 65.6497C46.1974 66.0844 46.4126 66.6448 46.4126 67.3309C46.4126 67.8934 46.2507 68.3962 45.9268 68.8394C45.6072 69.2826 45.1598 69.632 44.5845 69.8877C44.0092 70.1434 43.3402 70.2712 42.5774 70.2712C41.576 70.2712 40.7472 70.0539 40.0909 69.6192C39.4347 69.1845 39.0192 68.5496 38.8445 67.7144L40.2763 67.3564C40.4126 67.8848 40.6705 68.2811 41.0497 68.5453C41.4332 68.8095 41.9339 68.9417 42.5518 68.9417C43.255 68.9417 43.8132 68.7925 44.2266 68.4942C44.6442 68.1917 44.853 67.8294 44.853 67.4076C44.853 67.0667 44.7337 66.7811 44.495 66.551C44.2564 66.3167 43.8899 66.1419 43.3956 66.0269L41.7592 65.6434C40.8601 65.4303 40.1996 65.1 39.7777 64.6526C39.3601 64.2009 39.1513 63.6363 39.1513 62.9587C39.1513 62.4047 39.3068 61.9147 39.6179 61.4885C39.9332 61.0624 40.3615 60.7279 40.9027 60.485C41.4482 60.2421 42.0661 60.1206 42.7564 60.1206C43.728 60.1206 44.4908 60.3337 45.0447 60.7598C45.603 61.186 45.9993 61.7485 46.2337 62.4473ZM53.9505 70.0667V56.9757H61.851V58.382H55.5357V62.8053H61.4419V64.2115H55.5357V68.6604H61.9533V70.0667H53.9505ZM65.6287 60.2485L67.981 64.2627L70.3333 60.2485H72.0719L68.9015 65.1576L72.0719 70.0667H70.3333L67.981 66.257L65.6287 70.0667H63.8901L67.0094 65.1576L63.8901 60.2485H65.6287ZM74.2244 73.7485V60.2485H75.6818V61.8081H75.8608C75.9716 61.6377 76.125 61.4203 76.321 61.1561C76.5213 60.8877 76.8068 60.649 77.1776 60.4402C77.5526 60.2272 78.0597 60.1206 78.6989 60.1206C79.5256 60.1206 80.2543 60.3273 80.8849 60.7407C81.5156 61.154 82.0078 61.7399 82.3615 62.4985C82.7152 63.257 82.892 64.1519 82.892 65.1831C82.892 66.2229 82.7152 67.1242 82.3615 67.887C82.0078 68.6455 81.5178 69.2336 80.8913 69.6512C80.2649 70.0645 79.5426 70.2712 78.7244 70.2712C78.0938 70.2712 77.5888 70.1668 77.2095 69.958C76.8303 69.7449 76.5384 69.5042 76.3338 69.2357C76.1293 68.963 75.9716 68.7371 75.8608 68.5581H75.733V73.7485H74.2244ZM75.7074 65.1576C75.7074 65.899 75.8161 66.5532 76.0334 67.1199C76.2507 67.6824 76.5682 68.1235 76.9858 68.4431C77.4034 68.7584 77.9148 68.9161 78.5199 68.9161C79.1506 68.9161 79.6768 68.7499 80.0987 68.4175C80.5249 68.0809 80.8445 67.6292 81.0575 67.0624C81.2749 66.4914 81.3835 65.8564 81.3835 65.1576C81.3835 64.4672 81.277 63.8451 81.0639 63.2911C80.8551 62.7328 80.5376 62.2918 80.1115 61.9679C79.6896 61.6398 79.1591 61.4757 78.5199 61.4757C77.9063 61.4757 77.3906 61.6313 76.973 61.9424C76.5554 62.2492 76.2401 62.6796 76.027 63.2336C75.8139 63.7833 75.7074 64.4246 75.7074 65.1576ZM89.3097 70.2712C88.3636 70.2712 87.5476 70.0624 86.8615 69.6448C86.1797 69.2229 85.6534 68.6348 85.2827 67.8806C84.9162 67.122 84.733 66.2399 84.733 65.2343C84.733 64.2286 84.9162 63.3422 85.2827 62.5752C85.6534 61.8039 86.169 61.203 86.8295 60.7726C87.4943 60.338 88.2699 60.1206 89.1562 60.1206C89.6676 60.1206 90.1726 60.2059 90.6712 60.3763C91.1697 60.5468 91.6236 60.8238 92.0327 61.2073C92.4418 61.5865 92.7678 62.0894 93.0107 62.7158C93.2536 63.3422 93.375 64.1135 93.375 65.0297V65.6689H85.8068V64.3649H91.8409C91.8409 63.811 91.7301 63.3167 91.5085 62.882C91.2912 62.4473 90.9801 62.1043 90.5753 61.8529C90.1747 61.6015 89.7017 61.4757 89.1562 61.4757C88.5554 61.4757 88.0355 61.6249 87.5966 61.9232C87.1619 62.2172 86.8274 62.6007 86.593 63.0738C86.3587 63.5468 86.2415 64.0539 86.2415 64.5951V65.4644C86.2415 66.2059 86.3693 66.8344 86.625 67.35C86.8849 67.8614 87.245 68.2513 87.7053 68.5198C88.1655 68.784 88.7003 68.9161 89.3097 68.9161C89.706 68.9161 90.0639 68.8607 90.3835 68.7499C90.7074 68.6348 90.9865 68.4644 91.2209 68.2385C91.4553 68.0084 91.6364 67.7229 91.7642 67.382L93.2216 67.7911C93.0682 68.2854 92.8104 68.7201 92.4482 69.0951C92.0859 69.4658 91.6385 69.7556 91.1058 69.9644C90.5732 70.1689 89.9744 70.2712 89.3097 70.2712ZM95.6697 70.0667V60.2485H97.1271V61.7314H97.2294C97.4084 61.2456 97.7322 60.8515 98.201 60.5489C98.6697 60.2463 99.1982 60.0951 99.7862 60.0951C99.897 60.0951 100.036 60.0972 100.202 60.1015C100.368 60.1057 100.494 60.1121 100.579 60.1206V61.6547C100.528 61.6419 100.411 61.6228 100.227 61.5972C100.048 61.5674 99.8587 61.5524 99.6584 61.5524C99.1811 61.5524 98.755 61.6526 98.38 61.8529C98.0092 62.0489 97.7152 62.3216 97.4979 62.6711C97.2848 63.0162 97.1783 63.4104 97.1783 63.8536V70.0667H95.6697ZM102.367 70.0667V60.2485H103.876V70.0667H102.367ZM103.134 58.6121C102.84 58.6121 102.586 58.512 102.373 58.3117C102.165 58.1114 102.06 57.8706 102.06 57.5894C102.06 57.3081 102.165 57.0674 102.373 56.8671C102.586 56.6668 102.84 56.5667 103.134 56.5667C103.428 56.5667 103.68 56.6668 103.888 56.8671C104.101 57.0674 104.208 57.3081 104.208 57.5894C104.208 57.8706 104.101 58.1114 103.888 58.3117C103.68 58.512 103.428 58.6121 103.134 58.6121ZM110.755 70.2712C109.809 70.2712 108.993 70.0624 108.307 69.6448C107.625 69.2229 107.099 68.6348 106.728 67.8806C106.362 67.122 106.178 66.2399 106.178 65.2343C106.178 64.2286 106.362 63.3422 106.728 62.5752C107.099 61.8039 107.614 61.203 108.275 60.7726C108.94 60.338 109.715 60.1206 110.602 60.1206C111.113 60.1206 111.618 60.2059 112.116 60.3763C112.615 60.5468 113.069 60.8238 113.478 61.2073C113.887 61.5865 114.213 62.0894 114.456 62.7158C114.699 63.3422 114.82 64.1135 114.82 65.0297V65.6689H107.252V64.3649H113.286C113.286 63.811 113.175 63.3167 112.954 62.882C112.737 62.4473 112.425 62.1043 112.021 61.8529C111.62 61.6015 111.147 61.4757 110.602 61.4757C110.001 61.4757 109.481 61.6249 109.042 61.9232C108.607 62.2172 108.273 62.6007 108.038 63.0738C107.804 63.5468 107.687 64.0539 107.687 64.5951V65.4644C107.687 66.2059 107.815 66.8344 108.07 67.35C108.33 67.8614 108.69 68.2513 109.151 68.5198C109.611 68.784 110.146 68.9161 110.755 68.9161C111.151 68.9161 111.509 68.8607 111.829 68.7499C112.153 68.6348 112.432 68.4644 112.666 68.2385C112.901 68.0084 113.082 67.7229 113.21 67.382L114.667 67.7911C114.513 68.2854 114.256 68.7201 113.893 69.0951C113.531 69.4658 113.084 69.7556 112.551 69.9644C112.018 70.1689 111.42 70.2712 110.755 70.2712ZM118.624 64.1604V70.0667H117.115V60.2485H118.572V61.7826H118.7C118.93 61.284 119.28 60.8834 119.749 60.5809C120.217 60.274 120.822 60.1206 121.564 60.1206C122.229 60.1206 122.81 60.257 123.309 60.5297C123.808 60.7982 124.195 61.2073 124.472 61.757C124.749 62.3024 124.888 62.9928 124.888 63.828V70.0667H123.379V63.9303C123.379 63.159 123.179 62.5581 122.778 62.1277C122.378 61.6931 121.828 61.4757 121.129 61.4757C120.648 61.4757 120.217 61.5801 119.838 61.789C119.463 61.9978 119.167 62.3024 118.95 62.703C118.732 63.1036 118.624 63.5894 118.624 64.1604ZM131.633 70.2712C130.713 70.2712 129.92 70.0539 129.255 69.6192C128.59 69.1845 128.079 68.5858 127.721 67.823C127.363 67.0603 127.184 66.1888 127.184 65.2087C127.184 64.2115 127.367 63.3316 127.734 62.5688C128.105 61.8017 128.62 61.203 129.281 60.7726C129.945 60.338 130.721 60.1206 131.607 60.1206C132.298 60.1206 132.92 60.2485 133.474 60.5042C134.028 60.7598 134.482 61.1178 134.835 61.578C135.189 62.0382 135.409 62.5752 135.494 63.1888H133.985C133.87 62.7414 133.615 62.3451 133.218 61.9999C132.826 61.6505 132.298 61.4757 131.633 61.4757C131.045 61.4757 130.529 61.6292 130.086 61.936C129.647 62.2385 129.304 62.6668 129.057 63.2208C128.814 63.7705 128.693 64.4161 128.693 65.1576C128.693 65.9161 128.812 66.5766 129.051 67.1391C129.294 67.7016 129.634 68.1384 130.073 68.4495C130.517 68.7605 131.036 68.9161 131.633 68.9161C132.025 68.9161 132.381 68.8479 132.7 68.7115C133.02 68.5752 133.291 68.3792 133.512 68.1235C133.734 67.8678 133.892 67.561 133.985 67.203H135.494C135.409 67.7826 135.198 68.3046 134.861 68.7691C134.529 69.2293 134.088 69.5958 133.538 69.8685C132.992 70.137 132.357 70.2712 131.633 70.2712ZM141.816 70.2712C140.869 70.2712 140.053 70.0624 139.367 69.6448C138.686 69.2229 138.159 68.6348 137.789 67.8806C137.422 67.122 137.239 66.2399 137.239 65.2343C137.239 64.2286 137.422 63.3422 137.789 62.5752C138.159 61.8039 138.675 61.203 139.335 60.7726C140 60.338 140.776 60.1206 141.662 60.1206C142.173 60.1206 142.678 60.2059 143.177 60.3763C143.676 60.5468 144.129 60.8238 144.539 61.2073C144.948 61.5865 145.274 62.0894 145.517 62.7158C145.759 63.3422 145.881 64.1135 145.881 65.0297V65.6689H138.313V64.3649H144.347C144.347 63.811 144.236 63.3167 144.014 62.882C143.797 62.4473 143.486 62.1043 143.081 61.8529C142.681 61.6015 142.208 61.4757 141.662 61.4757C141.061 61.4757 140.541 61.6249 140.102 61.9232C139.668 62.2172 139.333 62.6007 139.099 63.0738C138.865 63.5468 138.747 64.0539 138.747 64.5951V65.4644C138.747 66.2059 138.875 66.8344 139.131 67.35C139.391 67.8614 139.751 68.2513 140.211 68.5198C140.671 68.784 141.206 68.9161 141.816 68.9161C142.212 68.9161 142.57 68.8607 142.889 68.7499C143.213 68.6348 143.492 68.4644 143.727 68.2385C143.961 68.0084 144.142 67.7229 144.27 67.382L145.727 67.7911C145.574 68.2854 145.316 68.7201 144.954 69.0951C144.592 69.4658 144.144 69.7556 143.612 69.9644C143.079 70.1689 142.48 70.2712 141.816 70.2712Z" fill="#08546C"/>
</svg>
