<svg width="71" height="72" viewBox="0 0 71 72" fill="none" xmlns="http://www.w3.org/2000/svg">
<path d="M21.8089 1.09091V36H15.4851V7.24432H15.2805L7.11577 12.4602V6.66477L15.7919 1.09091H21.8089ZM43.4567 36.4773C41.7862 36.4659 40.1555 36.1761 38.5646 35.608C36.9737 35.0284 35.5419 34.0909 34.2692 32.7955C32.9964 31.4886 31.9851 29.7557 31.2351 27.5966C30.4851 25.4261 30.1158 22.7386 30.1271 19.5341C30.1271 16.5455 30.4453 13.8807 31.0817 11.5398C31.718 9.19886 32.6328 7.22159 33.826 5.60795C35.0192 3.98295 36.4567 2.74432 38.1385 1.89204C39.8317 1.03977 41.7237 0.613635 43.8146 0.613635C46.0078 0.613635 47.951 1.04545 49.6442 1.90909C51.3487 2.77273 52.7237 3.95454 53.7692 5.45455C54.8146 6.94318 55.4624 8.625 55.7124 10.5H49.4908C49.1726 9.15909 48.5192 8.09091 47.5305 7.29545C46.5533 6.48864 45.3146 6.08523 43.8146 6.08523C41.3942 6.08523 39.5305 7.13636 38.2237 9.23864C36.9283 11.3409 36.2749 14.2273 36.2635 17.8977H36.5021C37.0589 16.8977 37.7805 16.0398 38.6669 15.3239C39.5533 14.608 40.5533 14.0568 41.6669 13.6705C42.7919 13.2727 43.9794 13.0739 45.2294 13.0739C47.2749 13.0739 49.1101 13.5625 50.7351 14.5398C52.3714 15.517 53.6669 16.8636 54.6215 18.5795C55.576 20.2841 56.0476 22.2386 56.0362 24.4432C56.0476 26.7386 55.5249 28.8011 54.468 30.6307C53.4112 32.4489 51.9396 33.8807 50.0533 34.9261C48.1669 35.9716 45.968 36.4886 43.4567 36.4773ZM43.4226 31.3636C44.6612 31.3636 45.7692 31.0625 46.7464 30.4602C47.7237 29.858 48.4964 29.0455 49.0646 28.0227C49.6328 27 49.9112 25.8523 49.8999 24.5795C49.9112 23.3295 49.6385 22.1989 49.0817 21.1875C48.5362 20.1761 47.7805 19.375 46.8146 18.7841C45.8487 18.1932 44.7464 17.8977 43.5078 17.8977C42.5874 17.8977 41.7294 18.0739 40.9339 18.4261C40.1385 18.7784 39.4453 19.267 38.8544 19.892C38.2635 20.5057 37.7976 21.2216 37.4567 22.0398C37.1271 22.8466 36.9567 23.7102 36.9453 24.6307C36.9567 25.8466 37.2408 26.9659 37.7976 27.9886C38.3544 29.0114 39.1214 29.8295 40.0987 30.4432C41.076 31.0568 42.1839 31.3636 43.4226 31.3636Z" fill="#08546C"/>
<path d="M2.12216 70.0667H0.460227L5.26705 56.9757H6.90341L11.7102 70.0667H10.0483L6.13636 59.0468H6.03409L2.12216 70.0667ZM2.7358 64.953H9.43466V66.3593H2.7358V64.953ZM14.5387 70.0667L11.5472 60.2485H13.1325L15.2546 67.7655H15.3569L17.4535 60.2485H19.0643L21.1353 67.7399H21.2376L23.3597 60.2485H24.945L21.9535 70.0667H20.4705L18.3228 62.524H18.1694L16.0217 70.0667H14.5387ZM29.8285 70.2968C29.2063 70.2968 28.6417 70.1796 28.1346 69.9452C27.6275 69.7066 27.2248 69.3635 26.9265 68.9161C26.6282 68.4644 26.479 67.9189 26.479 67.2797C26.479 66.7172 26.5898 66.2613 26.8114 65.9118C27.033 65.5581 27.3292 65.2811 27.6999 65.0809C28.0707 64.8806 28.4798 64.7314 28.9272 64.6334C29.3789 64.5311 29.8327 64.4502 30.2887 64.3905C30.8853 64.3138 31.369 64.2563 31.7397 64.2179C32.1147 64.1753 32.3874 64.105 32.5579 64.007C32.7326 63.909 32.82 63.7385 32.82 63.4956V63.4445C32.82 62.8138 32.6474 62.3238 32.3022 61.9743C31.9613 61.6249 31.4435 61.4502 30.7489 61.4502C30.0288 61.4502 29.4641 61.6078 29.055 61.9232C28.646 62.2385 28.3583 62.5752 28.1921 62.9331L26.7603 62.4218C27.016 61.8252 27.3569 61.3607 27.783 61.0283C28.2134 60.6917 28.6822 60.4573 29.1893 60.3252C29.7006 60.1888 30.2035 60.1206 30.6978 60.1206C31.0131 60.1206 31.3754 60.159 31.7844 60.2357C32.1978 60.3081 32.5962 60.4594 32.9798 60.6895C33.3675 60.9196 33.6893 61.2669 33.945 61.7314C34.2006 62.1959 34.3285 62.8181 34.3285 63.5979V70.0667H32.82V68.7371H32.7433C32.641 68.9502 32.4705 69.1782 32.2319 69.4211C31.9933 69.664 31.6758 69.8706 31.2795 70.0411C30.8832 70.2115 30.3995 70.2968 29.8285 70.2968ZM30.0586 68.9417C30.6552 68.9417 31.158 68.8245 31.5671 68.5901C31.9805 68.3557 32.2915 68.0532 32.5004 67.6824C32.7134 67.3117 32.82 66.9218 32.82 66.5127V65.132C32.756 65.2087 32.6154 65.279 32.3981 65.3429C32.185 65.4026 31.9379 65.4559 31.6566 65.5027C31.3796 65.5453 31.109 65.5837 30.8448 65.6178C30.5849 65.6476 30.3739 65.6732 30.212 65.6945C29.82 65.7456 29.4535 65.8287 29.1126 65.9438C28.7759 66.0546 28.5032 66.2229 28.2944 66.4488C28.0898 66.6703 27.9876 66.9729 27.9876 67.3564C27.9876 67.8806 28.1815 68.2769 28.5692 68.5453C28.9613 68.8095 29.4577 68.9417 30.0586 68.9417ZM37.0819 70.0667V60.2485H38.5392V61.7314H38.6415C38.8205 61.2456 39.1444 60.8515 39.6131 60.5489C40.0819 60.2463 40.6103 60.0951 41.1983 60.0951C41.3091 60.0951 41.4476 60.0972 41.6138 60.1015C41.78 60.1057 41.9057 60.1121 41.9909 60.1206V61.6547C41.9398 61.6419 41.8226 61.6228 41.6394 61.5972C41.4604 61.5674 41.2708 61.5524 41.0705 61.5524C40.5932 61.5524 40.1671 61.6526 39.7921 61.8529C39.4213 62.0489 39.1273 62.3216 38.91 62.6711C38.6969 63.0162 38.5904 63.4104 38.5904 63.8536V70.0667H37.0819ZM47.1877 70.2712C46.3695 70.2712 45.6472 70.0645 45.0208 69.6512C44.3944 69.2336 43.9043 68.6455 43.5506 67.887C43.1969 67.1242 43.0201 66.2229 43.0201 65.1831C43.0201 64.1519 43.1969 63.257 43.5506 62.4985C43.9043 61.7399 44.3965 61.154 45.0272 60.7407C45.6578 60.3273 46.3865 60.1206 47.2132 60.1206C47.8525 60.1206 48.3574 60.2272 48.7282 60.4402C49.1032 60.649 49.3887 60.8877 49.5847 61.1561C49.785 61.4203 49.9405 61.6377 50.0513 61.8081H50.1792V56.9757H51.6877V70.0667H50.2303V68.5581H50.0513C49.9405 68.7371 49.7828 68.963 49.5783 69.2357C49.3738 69.5042 49.0819 69.7449 48.7026 69.958C48.3233 70.1668 47.8184 70.2712 47.1877 70.2712ZM47.3922 68.9161C47.9973 68.9161 48.5087 68.7584 48.9263 68.4431C49.3439 68.1235 49.6614 67.6824 49.8787 67.1199C50.0961 66.5532 50.2047 65.899 50.2047 65.1576C50.2047 64.4246 50.0982 63.7833 49.8851 63.2336C49.6721 62.6796 49.3567 62.2492 48.9391 61.9424C48.5215 61.6313 48.0059 61.4757 47.3922 61.4757C46.753 61.4757 46.2203 61.6398 45.7942 61.9679C45.3723 62.2918 45.0549 62.7328 44.8418 63.2911C44.633 63.8451 44.5286 64.4672 44.5286 65.1576C44.5286 65.8564 44.6351 66.4914 44.8482 67.0624C45.0655 67.6292 45.3851 68.0809 45.807 68.4175C46.2331 68.7499 46.7615 68.9161 47.3922 68.9161ZM61.6145 62.4473L60.2594 62.8309C60.1742 62.605 60.0485 62.3855 59.8823 62.1725C59.7203 61.9551 59.4988 61.7762 59.2175 61.6355C58.9363 61.4949 58.5762 61.4246 58.1373 61.4246C57.5364 61.4246 57.0357 61.5631 56.6351 61.8401C56.2388 62.1128 56.0407 62.4601 56.0407 62.882C56.0407 63.257 56.177 63.5532 56.4498 63.7705C56.7225 63.9878 57.1486 64.1689 57.7282 64.3138L59.1855 64.6718C60.0634 64.8848 60.7175 65.2108 61.1479 65.6497C61.5783 66.0844 61.7935 66.6448 61.7935 67.3309C61.7935 67.8934 61.6316 68.3962 61.3077 68.8394C60.9881 69.2826 60.5407 69.632 59.9654 69.8877C59.3901 70.1434 58.7211 70.2712 57.9583 70.2712C56.9569 70.2712 56.128 70.0539 55.4718 69.6192C54.8155 69.1845 54.4 68.5496 54.2253 67.7144L55.6571 67.3564C55.7935 67.8848 56.0513 68.2811 56.4306 68.5453C56.8141 68.8095 57.3148 68.9417 57.9327 68.9417C58.6358 68.9417 59.1941 68.7925 59.6074 68.4942C60.025 68.1917 60.2338 67.8294 60.2338 67.4076C60.2338 67.0667 60.1145 66.7811 59.8759 66.551C59.6373 66.3167 59.2708 66.1419 58.7765 66.0269L57.1401 65.6434C56.2409 65.4303 55.5804 65.1 55.1586 64.6526C54.7409 64.2009 54.5321 63.6363 54.5321 62.9587C54.5321 62.4047 54.6877 61.9147 54.9988 61.4885C55.3141 61.0624 55.7424 60.7279 56.2836 60.485C56.829 60.2421 57.4469 60.1206 58.1373 60.1206C59.1088 60.1206 59.8716 60.3337 60.4256 60.7598C60.9838 61.186 61.3801 61.7485 61.6145 62.4473Z" fill="#08546C"/>
</svg>
